<svg width="45" height="45" viewBox="0 0 45 45" fill="none" xmlns="http://www.w3.org/2000/svg">
<g clip-path="url(#clip0_11259_8927)">
<path d="M22.5 0C10.0927 0 0 10.0927 0 22.5C0 34.9073 10.0927 45 22.5 45C34.9073 45 45 34.9055 45 22.5C45 10.0945 34.9073 0 22.5 0ZM22.5 41.5143C12.0168 41.5143 3.48565 32.9849 3.48565 22.5C3.48565 12.0151 12.0168 3.48565 22.5 3.48565C32.9832 3.48565 41.5143 12.0151 41.5143 22.5C41.5143 32.9849 32.9849 41.5143 22.5 41.5143Z" fill="#008941"/>
<path d="M31.2142 20.6004H24.2429V13.6291C24.2429 12.667 23.4638 11.8862 22.5 11.8862C21.5362 11.8862 20.7571 12.667 20.7571 13.6291V20.6004H13.7858C12.822 20.6004 12.043 21.3812 12.043 22.3433C12.043 23.3053 12.822 24.0862 13.7858 24.0862H20.7571V31.0575C20.7571 32.0195 21.5362 32.8003 22.5 32.8003C23.4638 32.8003 24.2429 32.0195 24.2429 31.0575V24.0862H31.2142C32.178 24.0862 32.9571 23.3053 32.9571 22.3433C32.9571 21.3812 32.178 20.6004 31.2142 20.6004Z" fill="#008941"/>
</g>
<defs>
<clipPath id="clip0_11259_8927">
<rect width="45" height="45" fill="white"/>
</clipPath>
</defs>
</svg>
