<svg width="20" height="20" viewBox="0 0 20 20" fill="none" xmlns="http://www.w3.org/2000/svg">
<path fill-rule="evenodd" clip-rule="evenodd" d="M10.0349 3.12507C7.31476 3.11031 5.01183 5.42986 5.01562 8.1242L5.01562 8.12508L5.01562 8.75008C5.01562 11.6349 4.41076 13.3722 3.83032 14.3751H16.1697C15.5892 13.3722 14.9844 11.6349 14.9844 8.75008V8.1954C14.9844 5.42602 12.7738 3.14615 10.0349 3.12507ZM3.76562 8.12553C3.76111 4.74177 6.62412 1.85607 10.0425 1.87509L10.0438 1.8751C13.4921 1.90123 16.2344 4.76185 16.2344 8.1954V8.75008C16.2344 11.4584 16.8011 12.971 17.2518 13.7494L17.2522 13.7501C17.3617 13.9398 17.4195 14.1549 17.4197 14.374C17.4199 14.593 17.3625 14.8083 17.2533 14.9982C17.1441 15.1881 16.9869 15.3459 16.7975 15.456C16.6081 15.566 16.3931 15.6243 16.1741 15.6251L16.1719 15.6251H3.82812L3.82592 15.6251C3.60688 15.6243 3.39188 15.566 3.20246 15.456C3.01305 15.3459 2.85588 15.1881 2.74669 14.9982C2.6375 14.8083 2.58013 14.593 2.58032 14.374C2.58052 14.1549 2.63827 13.9398 2.74779 13.7501L2.74817 13.7494C3.19887 12.971 3.76562 11.4584 3.76562 8.75008V8.12553Z" fill="#6E6E6E"/>
<path fill-rule="evenodd" clip-rule="evenodd" d="M7.5 14.3751C7.84517 14.3751 8.125 14.6549 8.125 15.0001V15.6251C8.125 16.1224 8.32254 16.5993 8.67417 16.9509C9.0258 17.3025 9.50272 17.5001 10 17.5001C10.4973 17.5001 10.9742 17.3025 11.3258 16.9509C11.6775 16.5993 11.875 16.1224 11.875 15.6251V15.0001C11.875 14.6549 12.1548 14.3751 12.5 14.3751C12.8452 14.3751 13.125 14.6549 13.125 15.0001V15.6251C13.125 16.4539 12.7958 17.2487 12.2097 17.8348C11.6237 18.4208 10.8288 18.7501 10 18.7501C9.17119 18.7501 8.37634 18.4208 7.79029 17.8348C7.20424 17.2487 6.875 16.4539 6.875 15.6251V15.0001C6.875 14.6549 7.15482 14.3751 7.5 14.3751Z" fill="#6E6E6E"/>
</svg>
