<svg width="18" height="18" viewBox="0 0 18 18" fill="none" xmlns="http://www.w3.org/2000/svg">
<path fill-rule="evenodd" clip-rule="evenodd" d="M6.78217 4.53217C7.07506 4.23928 7.54994 4.23928 7.84283 4.53217L11.7803 8.46967C12.0732 8.76256 12.0732 9.23744 11.7803 9.53033L7.84283 13.4678C7.54994 13.7607 7.07506 13.7607 6.78217 13.4678C6.48928 13.1749 6.48928 12.7001 6.78217 12.4072L10.1893 9L6.78217 5.59283C6.48928 5.29994 6.48928 4.82506 6.78217 4.53217Z" fill="#0D0E0D"/>
<path fill-rule="evenodd" clip-rule="evenodd" d="M0 9C0 8.58579 0.335786 8.25 0.75 8.25H11.25C11.6642 8.25 12 8.58579 12 9C12 9.41421 11.6642 9.75 11.25 9.75H0.75C0.335786 9.75 0 9.41421 0 9Z" fill="#0D0E0D"/>
<path fill-rule="evenodd" clip-rule="evenodd" d="M10.5 0.75C10.5 0.335786 10.8358 0 11.25 0H16.5C16.8978 0 17.2794 0.158035 17.5607 0.43934C17.842 0.720645 18 1.10218 18 1.5V16.5C18 16.8978 17.842 17.2794 17.5607 17.5607C17.2794 17.842 16.8978 18 16.5 18H11.25C10.8358 18 10.5 17.6642 10.5 17.25C10.5 16.8358 10.8358 16.5 11.25 16.5H16.5V1.5L11.25 1.5C10.8358 1.5 10.5 1.16421 10.5 0.75Z" fill="#0D0E0D"/>
</svg>
