<svg width="18" height="18" viewBox="0 0 18 18" fill="none" xmlns="http://www.w3.org/2000/svg">
<g clip-path="url(#clip0_11637_7961)">
<path d="M17.7941 9.62317L15.8054 7.63441C15.6735 7.50254 15.4946 7.42847 15.3081 7.42847C15.1216 7.42847 14.9428 7.50254 14.8109 7.63441L8.73375 13.7116C8.24135 14.204 7.90891 14.8252 7.77233 15.5081L7.44214 17.159C7.39602 17.3895 7.46819 17.6278 7.63441 17.794C7.76758 17.9272 7.94698 18 8.13162 18C8.17747 18 8.22366 17.9955 8.26951 17.9863L9.92041 17.6561H9.92044C10.6033 17.5195 11.2245 17.1871 11.7169 16.6947L17.7941 10.6175C18.0686 10.343 18.0686 9.89777 17.7941 9.62317ZM10.7225 15.7003C10.427 15.9958 10.0543 16.1953 9.64464 16.2772L9.02793 16.4005L9.15126 15.7838C9.23321 15.3741 9.43269 15.0014 9.72814 14.7059L15.3081 9.12592L16.3025 10.1203L10.7225 15.7003Z" fill="black"/>
<path d="M5.26391 16.5938H2.10938C1.72167 16.5938 1.40625 16.2783 1.40625 15.8906V2.10938C1.40625 1.72167 1.72167 1.40625 2.10938 1.40625H8.4375V3.51562C8.4375 4.67873 9.38377 5.625 10.5469 5.625H12.6562V6.1032C12.6562 6.49153 12.971 6.80632 13.3594 6.80632C13.7477 6.80632 14.0625 6.49153 14.0625 6.1032V4.92184C14.0625 4.7315 13.9822 4.54901 13.8562 4.42434L9.63784 0.205945C9.50808 0.0762187 9.32636 0 9.14062 0H2.10938C0.946266 0 0 0.946266 0 2.10938V15.8906C0 17.0537 0.946266 18 2.10938 18H5.26391C5.65225 18 5.96704 17.6852 5.96704 17.2969C5.96704 16.9085 5.65221 16.5938 5.26391 16.5938ZM10.5469 4.21875C10.1592 4.21875 9.84375 3.90333 9.84375 3.51562V2.40061L11.6619 4.21875H10.5469Z" fill="black"/>
<path d="M11.25 7.45312C11.25 7.06479 10.9352 6.75 10.5469 6.75H3.51562C3.12729 6.75 2.8125 7.06479 2.8125 7.45312C2.8125 7.84146 3.12729 8.15625 3.51562 8.15625H10.5469C10.9352 8.15625 11.25 7.84146 11.25 7.45312Z" fill="black"/>
<path d="M3.51562 9.5625C3.12729 9.5625 2.8125 9.87729 2.8125 10.2656C2.8125 10.654 3.12729 10.9688 3.51562 10.9688H9.19695C9.58528 10.9688 9.90007 10.654 9.90007 10.2656C9.90007 9.87729 9.58528 9.5625 9.19695 9.5625H3.51562Z" fill="black"/>
<path d="M6.53808 12.375H3.51562C3.12729 12.375 2.8125 12.6898 2.8125 13.0781C2.8125 13.4665 3.12729 13.7812 3.51562 13.7812H6.53808C6.92641 13.7812 7.2412 13.4665 7.2412 13.0781C7.2412 12.6898 6.92641 12.375 6.53808 12.375Z" fill="black"/>
</g>
<defs>
<clipPath id="clip0_11637_7961">
<rect width="18" height="18" fill="white"/>
</clipPath>
</defs>
</svg>
