<svg width="15" height="15" viewBox="0 0 15 15" fill="none" xmlns="http://www.w3.org/2000/svg">
<path d="M11.6593 1.40634C11.6603 1.40634 11.6608 1.40751 11.6601 1.40822L7.94006 5.12822C7.80265 5.26562 7.7341 5.4455 7.7341 5.62539C7.7341 5.80802 7.80476 5.99066 7.94642 6.12885C8.22389 6.39953 8.67222 6.38476 8.94629 6.11066L12.6544 2.40255C12.6551 2.40188 12.6563 2.40235 12.6563 2.40332V4.45322C12.6563 4.64716 12.7351 4.82324 12.8622 4.95039C12.9924 5.08055 13.1738 5.16003 13.3732 5.1562C13.759 5.14875 14.0625 4.82189 14.0625 4.43602V0.704331C14.0625 0.315415 13.7472 0.00012207 13.3583 0.00012207H9.60939C9.41545 0.00012207 9.23937 0.0789307 9.11223 0.206079C8.98206 0.336245 8.90258 0.517681 8.90641 0.717046C8.91386 1.10283 9.24072 1.40637 9.62659 1.40637H11.6593L11.6593 1.40634Z" fill="black"/>
<path d="M0.703125 0C0.314795 0 0 0.314795 0 0.703125V13.3594C0 13.7476 0.314941 14.0625 0.703125 14.0625H13.3594C13.5533 14.0625 13.7291 13.9837 13.8565 13.8565C13.9837 13.7291 14.0625 13.5533 14.0625 13.3594V7.73438C14.0625 7.54043 13.9837 7.36465 13.8565 7.23721C13.7291 7.11006 13.5533 7.03125 13.3594 7.03125C12.9712 7.03125 12.6562 7.34619 12.6562 7.73438V12.6562H1.40625V1.40625H6.32812C6.52207 1.40625 6.69785 1.32744 6.82529 1.20029C6.95244 1.07285 7.03125 0.89707 7.03125 0.703125C7.03125 0.314941 6.71631 0 6.32812 0H0.703125C0.314941 0 0 0.314941 0 0.703125L0.703125 0Z" fill="black"/>
</svg>
