<svg width="20" height="20" viewBox="0 0 20 20" fill="none" xmlns="http://www.w3.org/2000/svg">
<g clip-path="url(#clip0_9302_6360)">
<path d="M18.1936 0.863414C18.1248 0.820944 18.0455 0.79834 17.9647 0.79834H4.90983C3.78747 0.79834 2.87438 1.70252 2.87438 2.81066L2.79766 14.0529H0.438393C0.196249 14.0529 0 14.2491 0 14.4913V16.5166C0.00154122 18.0039 1.20678 19.2091 2.69406 19.2108C2.7242 19.2108 2.75451 19.2077 2.78414 19.2016H13.6763C13.7412 19.2062 13.8066 19.2093 13.8726 19.2093C15.383 19.2066 16.606 17.9818 16.6065 16.4714V9.89961H19.5616C19.8037 9.89961 20 9.70336 20 9.46122V2.95349C19.9946 1.90699 19.2283 1.0201 18.1936 0.863414ZM0.876785 16.5168V14.9298H11.1386V16.4716C11.1381 17.1584 11.3965 17.8201 11.8625 18.3248H2.63412C2.6134 18.325 2.59285 18.3265 2.57247 18.3296C1.6188 18.2647 0.877984 17.4727 0.876785 16.5168ZM15.7297 2.95349V16.4714C15.7289 16.9615 15.5342 17.4311 15.1881 17.7778C14.8567 18.1178 14.4065 18.3162 13.9322 18.3313C13.9085 18.3272 13.8845 18.3251 13.8604 18.325H13.7063C12.7514 18.231 12.0217 17.4312 12.0154 16.4717V14.4913C12.0154 14.2493 11.8191 14.0529 11.577 14.0529H3.67445L3.75117 2.81375C3.7575 2.17979 4.2757 1.67033 4.90983 1.67513H16.1652C15.8828 2.04142 15.7296 2.49095 15.7297 2.95349ZM19.1232 9.02283H16.6065V2.95349C16.618 2.26661 17.178 1.71605 17.8648 1.71605C18.5517 1.71605 19.1117 2.26661 19.1232 2.95349V9.02283Z" fill="black"/>
<path d="M5.6284 5.54781H9.78045C10.0226 5.54781 10.2188 5.35156 10.2188 5.10941C10.2188 4.86727 10.0226 4.67102 9.78045 4.67102H5.6284C5.38625 4.67102 5.19 4.86727 5.19 5.10941C5.19 5.35156 5.38625 5.54781 5.6284 5.54781Z" fill="black"/>
<path d="M13.3736 7.80542H5.6284C5.38625 7.80542 5.19 8.00167 5.19 8.24381C5.19 8.48578 5.38625 8.68221 5.6284 8.68221H13.3736C13.6157 8.68221 13.812 8.48578 13.812 8.24381C13.812 8.00167 13.6157 7.80542 13.3736 7.80542Z" fill="black"/>
<path d="M13.3736 10.9398H5.6284C5.38625 10.9398 5.19 11.1362 5.19 11.3782C5.19 11.6204 5.38625 11.8166 5.6284 11.8166H13.3736C13.6157 11.8166 13.812 11.6204 13.812 11.3782C13.812 11.1362 13.6157 10.9398 13.3736 10.9398Z" fill="black"/>
</g>
<defs>
<clipPath id="clip0_9302_6360">
<rect width="20" height="20" fill="white"/>
</clipPath>
</defs>
</svg>
