<svg width="795" height="175" viewBox="0 0 795 175" fill="none" xmlns="http://www.w3.org/2000/svg">
<g clip-path="url(#clip0_9297_5896)">
<path d="M394.623 49.3566C398.885 49.3566 402.353 45.926 402.353 41.7102C402.353 37.4943 398.885 34.0638 394.623 34.0638C390.361 34.0638 386.893 37.4943 386.893 41.7102C386.893 45.926 390.361 49.3566 394.623 49.3566ZM394.623 35.764C397.938 35.764 400.634 38.4315 400.634 41.7102C400.634 44.9888 397.938 47.6563 394.623 47.6563C391.309 47.6563 388.612 44.9888 388.612 41.7102C388.612 38.4315 391.309 35.764 394.623 35.764Z" fill="white"/>
<path d="M394.623 33.2168C395.097 33.2168 395.483 32.8368 395.483 32.3667V23.8717C395.483 23.4031 395.099 23.0216 394.623 23.0216C394.148 23.0216 393.764 23.4015 393.764 23.8717V32.3667C393.764 32.8353 394.148 33.2168 394.623 33.2168Z" fill="white"/>
<path d="M391.349 32.9049C391.451 33.2849 391.798 33.535 392.178 33.535C392.251 33.535 392.327 33.5255 392.4 33.5065C392.858 33.3846 393.13 32.9192 393.007 32.4664L391.896 28.363C391.773 27.9102 391.302 27.6411 390.845 27.763C390.387 27.8849 390.115 28.3503 390.238 28.8031L391.349 32.9065V32.9049Z" fill="white"/>
<path d="M389.156 34.0432C389.315 34.3155 389.604 34.4675 389.9 34.4675C390.046 34.4675 390.193 34.431 390.329 34.3535C390.741 34.1192 390.881 33.5999 390.643 33.1931L388.495 29.5139C388.258 29.1071 387.733 28.9693 387.322 29.2036C386.911 29.4379 386.77 29.9572 387.008 30.364L389.156 34.0432Z" fill="white"/>
<path d="M387.336 35.7038C387.504 35.8701 387.724 35.9524 387.943 35.9524C388.162 35.9524 388.383 35.8701 388.55 35.7038C388.886 35.3714 388.886 34.8347 388.55 34.5023L382.478 28.496C382.141 28.1635 381.599 28.1635 381.263 28.496C380.927 28.8284 380.927 29.3651 381.263 29.6975L387.335 35.7038H387.336Z" fill="white"/>
<path d="M387.186 37.4643C387.423 37.0574 387.282 36.5382 386.872 36.3039L383.153 34.1793C382.742 33.945 382.217 34.0843 381.98 34.4896C381.743 34.8965 381.884 35.4157 382.293 35.65L386.013 37.7746C386.149 37.8521 386.296 37.8885 386.442 37.8885C386.738 37.8885 387.028 37.7366 387.186 37.4643Z" fill="white"/>
<path d="M381.128 39.0141L385.277 40.1128C385.35 40.1318 385.426 40.1413 385.499 40.1413C385.878 40.1413 386.226 39.8912 386.328 39.5112C386.451 39.0585 386.179 38.593 385.722 38.4711L381.573 37.3724C381.116 37.2505 380.645 37.5197 380.522 37.9724C380.399 38.4252 380.671 38.8906 381.128 39.0125V39.0141Z" fill="white"/>
<path d="M386.035 41.7118C386.035 41.2432 385.651 40.8616 385.176 40.8616H376.588C376.114 40.8616 375.729 41.2416 375.729 41.7118C375.729 42.182 376.113 42.5619 376.588 42.5619H385.176C385.65 42.5619 386.035 42.182 386.035 41.7118Z" fill="white"/>
<path d="M381.573 46.0495L385.722 44.9508C386.179 44.8289 386.451 44.3634 386.328 43.9107C386.205 43.4579 385.734 43.1888 385.277 43.3107L381.128 44.4094C380.671 44.5313 380.399 44.9967 380.522 45.4495C380.624 45.8294 380.972 46.0795 381.351 46.0795C381.424 46.0795 381.5 46.07 381.573 46.051V46.0495Z" fill="white"/>
<path d="M382.294 47.7719C381.882 48.0062 381.741 48.5255 381.98 48.9323C382.138 49.2046 382.428 49.3566 382.724 49.3566C382.87 49.3566 383.017 49.3202 383.153 49.2426L386.872 47.1181C387.284 46.8838 387.425 46.3645 387.186 45.9577C386.949 45.5508 386.424 45.4115 386.013 45.6474L382.294 47.7719Z" fill="white"/>
<path d="M388.55 47.7181C388.213 47.3856 387.671 47.3856 387.335 47.7181L381.263 53.7244C380.927 54.0568 380.927 54.5935 381.263 54.926C381.431 55.0922 381.65 55.1745 381.869 55.1745C382.089 55.1745 382.31 55.0922 382.476 54.926L388.548 48.9196C388.884 48.5872 388.884 48.0505 388.548 47.7181H388.55Z" fill="white"/>
<path d="M390.329 49.0685C389.918 48.8342 389.393 48.9735 389.156 49.3788L387.008 53.0579C386.771 53.4648 386.912 53.984 387.322 54.2183C387.458 54.2959 387.605 54.3323 387.751 54.3323C388.047 54.3323 388.337 54.1803 388.495 53.908L390.643 50.2289C390.88 49.822 390.739 49.3028 390.329 49.0685Z" fill="white"/>
<path d="M392.4 49.917C391.942 49.7951 391.472 50.0642 391.349 50.517L390.238 54.6204C390.115 55.0732 390.387 55.5386 390.845 55.6605C390.918 55.6795 390.993 55.689 391.067 55.689C391.446 55.689 391.794 55.4389 391.896 55.0589L393.007 50.9555C393.13 50.5028 392.858 50.0373 392.4 49.9154V49.917Z" fill="white"/>
<path d="M394.623 50.2067C394.149 50.2067 393.764 50.5867 393.764 51.0569V59.5518C393.764 60.0204 394.148 60.4019 394.623 60.4019C395.099 60.4019 395.483 60.022 395.483 59.5518V51.0569C395.483 50.5883 395.099 50.2067 394.623 50.2067Z" fill="white"/>
<path d="M397.898 50.517C397.774 50.0642 397.304 49.7951 396.846 49.917C396.388 50.0389 396.116 50.5043 396.24 50.9571L397.35 55.0605C397.453 55.4405 397.8 55.6906 398.179 55.6906C398.253 55.6906 398.328 55.6811 398.402 55.6621C398.86 55.5402 399.132 55.0748 399.008 54.622L397.898 50.5186V50.517Z" fill="white"/>
<path d="M400.09 49.3787C399.853 48.9719 399.328 48.8326 398.917 49.0685C398.506 49.3028 398.365 49.822 398.604 50.2289L400.751 53.908C400.91 54.1803 401.199 54.3323 401.495 54.3323C401.641 54.3323 401.788 54.2959 401.924 54.2183C402.336 53.984 402.477 53.4647 402.238 53.0579L400.09 49.3787Z" fill="white"/>
<path d="M401.91 47.7181C401.574 47.3856 401.031 47.3856 400.695 47.7181C400.359 48.0505 400.359 48.5872 400.695 48.9196L406.767 54.926C406.935 55.0922 407.155 55.1745 407.374 55.1745C407.593 55.1745 407.814 55.0922 407.98 54.926C408.316 54.5935 408.316 54.0568 407.98 53.7244L401.908 47.7181H401.91Z" fill="white"/>
<path d="M402.374 47.1197L406.094 49.2442C406.23 49.3218 406.377 49.3582 406.522 49.3582C406.819 49.3582 407.108 49.2062 407.267 48.9339C407.504 48.527 407.363 48.0078 406.953 47.7735L403.234 45.649C402.822 45.4147 402.297 45.554 402.06 45.9592C401.824 46.3661 401.964 46.8854 402.374 47.1197Z" fill="white"/>
<path d="M408.118 44.4078L403.97 43.3091C403.512 43.1872 403.041 43.4564 402.918 43.9091C402.795 44.3619 403.067 44.8273 403.525 44.9492L407.673 46.0479C407.747 46.0669 407.822 46.0764 407.896 46.0764C408.275 46.0764 408.622 45.8263 408.725 45.4463C408.848 44.9936 408.576 44.5281 408.118 44.4062V44.4078Z" fill="white"/>
<path d="M412.658 40.8616H404.071C403.597 40.8616 403.211 41.2416 403.211 41.7118C403.211 42.182 403.595 42.5619 404.071 42.5619H412.658C413.132 42.5619 413.518 42.182 413.518 41.7118C413.518 41.2416 413.134 40.8616 412.658 40.8616Z" fill="white"/>
<path d="M407.673 37.3725L403.525 38.4711C403.067 38.593 402.795 39.0585 402.918 39.5112C403.021 39.8912 403.368 40.1413 403.747 40.1413C403.821 40.1413 403.896 40.1318 403.97 40.1128L408.118 39.0141C408.576 38.8922 408.848 38.4268 408.725 37.974C408.601 37.5213 408.131 37.2521 407.673 37.374V37.3725Z" fill="white"/>
<path d="M406.953 35.65C407.364 35.4157 407.505 34.8965 407.267 34.4896C407.03 34.0828 406.505 33.945 406.093 34.1793L402.374 36.3039C401.963 36.5382 401.822 37.0574 402.06 37.4643C402.219 37.7366 402.509 37.8886 402.805 37.8886C402.95 37.8886 403.098 37.8521 403.234 37.7746L406.953 35.65Z" fill="white"/>
<path d="M400.695 35.7038C400.863 35.8701 401.083 35.9524 401.302 35.9524C401.521 35.9524 401.742 35.8701 401.908 35.7038L407.98 29.6975C408.316 29.3651 408.316 28.8284 407.98 28.496C407.644 28.1635 407.102 28.1635 406.766 28.496L400.694 34.5023C400.358 34.8347 400.358 35.3714 400.694 35.7038H400.695Z" fill="white"/>
<path d="M398.917 34.3535C399.053 34.431 399.2 34.4674 399.346 34.4674C399.642 34.4674 399.932 34.3155 400.09 34.0432L402.238 30.364C402.475 29.9572 402.334 29.4379 401.924 29.2036C401.513 28.9693 400.988 29.1086 400.751 29.5139L398.604 33.193C398.367 33.5999 398.508 34.1192 398.917 34.3535Z" fill="white"/>
<path d="M396.846 33.5049C396.92 33.5239 396.995 33.5334 397.069 33.5334C397.448 33.5334 397.795 33.2833 397.898 32.9033L399.008 28.7999C399.132 28.3471 398.86 27.8817 398.402 27.7598C397.944 27.6379 397.474 27.907 397.35 28.3598L396.24 32.4632C396.116 32.916 396.388 33.3814 396.846 33.5033V33.5049Z" fill="white"/>
<path d="M38.132 160.219C38.1208 160.219 38.1112 160.219 38.1 160.219C37.7527 156.508 34.587 153.592 30.746 153.592C27.3883 153.592 24.5267 155.775 23.6401 158.893C23.4336 158.87 23.224 158.859 23.0159 158.859C19.9847 158.859 17.52 161.298 17.52 164.295C17.52 167.292 19.9863 169.731 23.0159 169.731H38.1304C40.7823 169.731 42.9397 167.597 42.9397 164.974C42.9397 162.351 40.7823 160.217 38.1304 160.217L38.132 160.219ZM38.132 168.034H23.0175C20.9337 168.034 19.2389 166.358 19.2389 164.297C19.2389 162.235 20.9337 160.559 23.0175 160.559C23.3696 160.559 23.7217 160.608 24.0626 160.705C24.2994 160.773 24.5539 160.736 24.762 160.605C24.97 160.473 25.1109 160.261 25.1493 160.021C25.5846 157.28 27.9388 155.292 30.7476 155.292C33.8732 155.292 36.4163 157.807 36.4163 160.899C36.4163 160.977 36.4131 161.053 36.4099 161.13C36.3987 161.395 36.5123 161.648 36.7172 161.817C36.9221 161.987 37.1941 162.052 37.455 161.995C37.6791 161.946 37.9079 161.92 38.1336 161.92C39.838 161.92 41.2256 163.293 41.2256 164.979C41.2256 166.665 39.838 168.037 38.1336 168.037L38.132 168.034Z" fill="white"/>
<path d="M16.4892 168.034H9.27447C8.80074 168.034 8.41504 168.414 8.41504 168.884C8.41504 169.355 8.79914 169.735 9.27447 169.735H16.4892C16.9629 169.735 17.3486 169.355 17.3486 168.884C17.3486 168.414 16.9645 168.034 16.4892 168.034Z" fill="white"/>
<path d="M6.18417 168.034H3.43463C2.9609 168.034 2.5752 168.414 2.5752 168.884C2.5752 169.355 2.9593 169.735 3.43463 169.735H6.18257C6.6563 169.735 7.042 169.355 7.042 168.884C7.042 168.414 6.6579 168.034 6.18257 168.034H6.18417Z" fill="white"/>
<path d="M12.5394 162.937C12.0656 162.937 11.6799 163.317 11.6799 163.787C11.6799 164.257 12.064 164.637 12.5394 164.637H14.9448C15.4185 164.637 15.8042 164.257 15.8042 163.787C15.8042 163.317 15.4201 162.937 14.9448 162.937H12.5394Z" fill="white"/>
<path d="M9.61859 163.787C9.61859 163.318 9.23449 162.937 8.75916 162.937H0.859432C0.385704 162.937 0 163.317 0 163.787C0 164.257 0.384104 164.637 0.859432 164.637H8.75916C9.23289 164.637 9.61859 164.257 9.61859 163.787Z" fill="white"/>
<path d="M6.18414 158.859H18.2066C18.6803 158.859 19.066 158.479 19.066 158.008C19.066 157.538 18.6819 157.158 18.2066 157.158H6.18414C5.71041 157.158 5.32471 157.538 5.32471 158.008C5.32471 158.479 5.70881 158.859 6.18414 158.859Z" fill="white"/>
<path d="M450.36 114.004C450.36 116.628 452.517 118.762 455.169 118.762H470.284C473.315 118.762 475.78 116.322 475.78 113.325C475.78 110.328 473.313 107.889 470.284 107.889C470.076 107.889 469.866 107.9 469.659 107.924C468.773 104.805 465.913 102.622 462.554 102.622C458.713 102.622 455.547 105.538 455.2 109.249C455.188 109.249 455.179 109.249 455.168 109.249C452.516 109.249 450.358 111.383 450.358 114.006L450.36 114.004ZM452.077 114.004C452.077 112.318 453.465 110.946 455.169 110.946C455.395 110.946 455.624 110.971 455.848 111.02C456.109 111.077 456.381 111.012 456.586 110.843C456.79 110.674 456.904 110.42 456.893 110.156C456.89 110.08 456.886 110.002 456.886 109.925C456.886 106.833 459.43 104.317 462.555 104.317C465.364 104.317 467.718 106.306 468.153 109.046C468.192 109.287 468.333 109.499 468.541 109.63C468.749 109.762 469.003 109.798 469.24 109.73C469.581 109.633 469.933 109.584 470.285 109.584C472.369 109.584 474.064 111.261 474.064 113.322C474.064 115.383 472.369 117.06 470.285 117.06H455.171C453.466 117.06 452.079 115.687 452.079 114.001L452.077 114.004Z" fill="white"/>
<path d="M476.639 117.063H483.854C484.327 117.063 484.713 117.443 484.713 117.913C484.713 118.383 484.329 118.763 483.854 118.763H476.639C476.165 118.763 475.78 118.383 475.78 117.913C475.78 117.443 476.164 117.063 476.639 117.063Z" fill="white"/>
<path d="M486.773 117.063H489.521C489.995 117.063 490.38 117.443 490.38 117.913C490.38 118.383 489.996 118.763 489.521 118.763H486.773C486.299 118.763 485.913 118.383 485.913 117.913C485.913 117.443 486.298 117.063 486.773 117.063Z" fill="white"/>
<path d="M480.59 111.965C481.064 111.965 481.45 112.345 481.45 112.815C481.45 113.286 481.066 113.666 480.59 113.666H478.185C477.711 113.666 477.326 113.286 477.326 112.815C477.326 112.345 477.71 111.965 478.185 111.965H480.59Z" fill="white"/>
<path d="M482.479 112.815C482.479 112.347 482.863 111.965 483.338 111.965H491.24C491.713 111.965 492.099 112.345 492.099 112.815C492.099 113.286 491.715 113.666 491.24 113.666H483.338C482.865 113.666 482.479 113.286 482.479 112.815Z" fill="white"/>
<path d="M486.946 107.889H474.922C474.448 107.889 474.062 107.509 474.062 107.039C474.062 106.569 474.446 106.189 474.922 106.189H486.946C487.419 106.189 487.805 106.569 487.805 107.039C487.805 107.509 487.421 107.889 486.946 107.889Z" fill="white"/>
<path d="M70.8511 59.6357H62.6072C62.1335 59.6357 61.7478 60.0157 61.7478 60.4858C61.7478 60.956 62.1319 61.336 62.6072 61.336H70.8511C71.3248 61.336 71.7105 60.956 71.7105 60.4858C71.7105 60.0157 71.3264 59.6357 70.8511 59.6357Z" fill="white"/>
<path d="M76.3487 59.6357H74.4586C73.9848 59.6357 73.5991 60.0157 73.5991 60.4858C73.5991 60.956 73.9832 61.336 74.4586 61.336H76.3487C76.8224 61.336 77.2081 60.956 77.2081 60.4858C77.2081 60.0157 76.824 59.6357 76.3487 59.6357Z" fill="white"/>
<path d="M700.531 71.5296H708.775C709.249 71.5296 709.635 71.1497 709.635 70.6795C709.635 70.2093 709.25 69.8293 708.775 69.8293H700.531C700.058 69.8293 699.672 70.2093 699.672 70.6795C699.672 71.1497 700.056 71.5296 700.531 71.5296Z" fill="white"/>
<path d="M695.035 71.5296H696.926C697.399 71.5296 697.785 71.1497 697.785 70.6795C697.785 70.2093 697.401 69.8293 696.926 69.8293H695.035C694.562 69.8293 694.176 70.2093 694.176 70.6795C694.176 71.1497 694.56 71.5296 695.035 71.5296Z" fill="white"/>
<path d="M94.1262 173.301H90.0035C89.5297 173.301 89.144 173.681 89.144 174.151C89.144 174.622 89.5281 175.002 90.0035 175.002H94.1262C94.5999 175.002 94.9856 174.622 94.9856 174.151C94.9856 173.681 94.6015 173.301 94.1262 173.301Z" fill="white"/>
<path d="M109.498 173.301H96.6165C96.1428 173.301 95.7571 173.681 95.7571 174.151C95.7571 174.622 96.1412 175.002 96.6165 175.002H109.498C109.972 175.002 110.358 174.622 110.358 174.151C110.358 173.681 109.974 173.301 109.498 173.301Z" fill="white"/>
<path d="M584.935 121.99H589.058C589.532 121.99 589.918 121.61 589.918 121.139C589.918 120.669 589.533 120.289 589.058 120.289H584.935C584.462 120.289 584.076 120.669 584.076 121.139C584.076 121.61 584.46 121.99 584.935 121.99Z" fill="white"/>
<path d="M569.563 121.99H582.445C582.919 121.99 583.305 121.61 583.305 121.139C583.305 120.669 582.921 120.289 582.445 120.289H569.563C569.09 120.289 568.704 120.669 568.704 121.139C568.704 121.61 569.088 121.99 569.563 121.99Z" fill="white"/>
<path d="M790.019 164.126H794.142C794.616 164.126 795.001 163.746 795.001 163.275C795.001 162.805 794.617 162.425 794.142 162.425H790.019C789.546 162.425 789.16 162.805 789.16 163.275C789.16 163.746 789.544 164.126 790.019 164.126Z" fill="white"/>
<path d="M774.646 164.126H787.527C788.001 164.126 788.387 163.746 788.387 163.275C788.387 162.805 788.003 162.425 787.527 162.425H774.646C774.172 162.425 773.786 162.805 773.786 163.275C773.786 163.746 774.17 164.126 774.646 164.126Z" fill="white"/>
<path d="M204.654 107.889H199.844C199.371 107.889 198.985 107.509 198.985 107.039C198.985 106.569 199.369 106.189 199.844 106.189H204.654C205.127 106.189 205.513 106.569 205.513 107.039C205.513 107.509 205.129 107.889 204.654 107.889Z" fill="white"/>
<path d="M210.838 107.889H208.261C207.787 107.889 207.402 107.509 207.402 107.039C207.402 106.569 207.786 106.189 208.261 106.189H210.838C211.311 106.189 211.697 106.569 211.697 107.039C211.697 107.509 211.313 107.889 210.838 107.889Z" fill="white"/>
<path d="M479.473 8.49497H474.664C474.19 8.49497 473.805 8.11502 473.805 7.64484C473.805 7.17465 474.189 6.79471 474.664 6.79471H479.473C479.947 6.79471 480.333 7.17465 480.333 7.64484C480.333 8.11502 479.949 8.49497 479.473 8.49497Z" fill="white"/>
<path d="M485.657 8.49497H483.081C482.607 8.49497 482.221 8.11502 482.221 7.64484C482.221 7.17465 482.605 6.79471 483.081 6.79471H485.657C486.131 6.79471 486.517 7.17465 486.517 7.64484C486.517 8.11502 486.133 8.49497 485.657 8.49497Z" fill="white"/>
<path d="M149.519 1.69867H144.71C144.236 1.69867 143.85 1.31873 143.85 0.848542C143.85 0.378359 144.234 -0.00158691 144.71 -0.00158691H149.519C149.993 -0.00158691 150.378 0.378359 150.378 0.848542C150.378 1.31873 149.994 1.69867 149.519 1.69867Z" fill="white"/>
<path d="M155.703 1.69867H153.126C152.653 1.69867 152.267 1.31873 152.267 0.848542C152.267 0.378359 152.651 -0.00158691 153.126 -0.00158691H155.703C156.177 -0.00158691 156.562 0.378359 156.562 0.848542C156.562 1.31873 156.178 1.69867 155.703 1.69867Z" fill="white"/>
<path d="M778.168 2.5488H773.359C772.885 2.5488 772.5 2.16885 772.5 1.69867C772.5 1.22849 772.884 0.848541 773.359 0.848541H778.168C778.642 0.848541 779.028 1.22849 779.028 1.69867C779.028 2.16885 778.644 2.5488 778.168 2.5488Z" fill="white"/>
<path d="M784.351 2.5488H781.774C781.3 2.5488 780.915 2.16885 780.915 1.69867C780.915 1.22849 781.299 0.848541 781.774 0.848541H784.351C784.825 0.848541 785.21 1.22849 785.21 1.69867C785.21 2.16885 784.826 2.5488 784.351 2.5488Z" fill="white"/>
<path d="M657.676 17.1609C657.676 13.9757 655.057 11.3841 651.836 11.3841C651.556 11.3841 651.276 11.4047 650.999 11.4443C649.757 9.11555 647.326 7.64642 644.623 7.64642C642.719 7.64642 640.92 8.38099 639.577 9.6823C638.458 9.01423 637.189 8.66436 635.864 8.66436C631.887 8.66436 628.649 11.8654 628.649 15.801C628.649 19.7366 631.885 22.9377 635.864 22.9377H651.838C655.058 22.9377 657.678 20.3461 657.678 17.1609H657.676ZM651.836 21.239H635.863C632.831 21.239 630.367 18.7994 630.367 15.8026C630.367 12.8058 632.833 10.3662 635.863 10.3662C637.074 10.3662 638.225 10.7493 639.187 11.4744C639.555 11.7514 640.078 11.6913 640.371 11.3366C641.421 10.0717 642.97 9.3451 644.622 9.3451C646.867 9.3451 648.864 10.6749 649.713 12.733C649.878 13.1319 650.318 13.3456 650.737 13.2316C651.095 13.1335 651.465 13.0844 651.836 13.0844C654.109 13.0844 655.959 14.9129 655.959 17.1625C655.959 19.4121 654.111 21.2406 651.836 21.2406V21.239Z" fill="white"/>
<path d="M668.497 21.2374H657.848C657.374 21.2374 656.988 21.6173 656.988 22.0875C656.988 22.5577 657.372 22.9377 657.848 22.9377H668.497C668.971 22.9377 669.356 22.5577 669.356 22.0875C669.356 21.6173 668.972 21.2374 668.497 21.2374Z" fill="white"/>
<path d="M672.276 15.9704H659.909C659.435 15.9704 659.05 16.3503 659.05 16.8205C659.05 17.2907 659.434 17.6707 659.909 17.6707H672.276C672.749 17.6707 673.135 17.2907 673.135 16.8205C673.135 16.3503 672.751 15.9704 672.276 15.9704Z" fill="white"/>
<path d="M677.085 15.9704H674.852C674.379 15.9704 673.993 16.3503 673.993 16.8205C673.993 17.2907 674.377 17.6707 674.852 17.6707H677.085C677.559 17.6707 677.944 17.2907 677.944 16.8205C677.944 16.3503 677.56 15.9704 677.085 15.9704Z" fill="white"/>
<path d="M656.474 12.4037H659.909C660.383 12.4037 660.768 12.0237 660.768 11.5535C660.768 11.0833 660.384 10.7034 659.909 10.7034H656.474C656.001 10.7034 655.615 11.0833 655.615 11.5535C655.615 12.0237 655.999 12.4037 656.474 12.4037Z" fill="white"/>
<path d="M663.172 12.4037H672.276C672.749 12.4037 673.135 12.0237 673.135 11.5535C673.135 11.0833 672.751 10.7034 672.276 10.7034H663.172C662.699 10.7034 662.313 11.0833 662.313 11.5535C662.313 12.0237 662.697 12.4037 663.172 12.4037Z" fill="white"/>
<path d="M220.027 22.9377H236.001C239.978 22.9377 243.216 19.7366 243.216 15.801C243.216 11.8654 239.98 8.66436 236.001 8.66436C234.676 8.66436 233.405 9.01423 232.288 9.6823C230.945 8.3794 229.145 7.64642 227.242 7.64642C224.539 7.64642 222.108 9.11555 220.866 11.4443C220.589 11.4047 220.309 11.3841 220.029 11.3841C216.809 11.3841 214.189 13.9757 214.189 17.1609C214.189 20.3461 216.809 22.9377 220.029 22.9377H220.027ZM215.905 17.1609C215.905 14.9129 217.753 13.0828 220.027 13.0828C220.397 13.0828 220.767 13.1319 221.127 13.23C221.546 13.344 221.986 13.1303 222.151 12.7314C222.999 10.6733 224.997 9.34352 227.242 9.34352C228.894 9.34352 230.443 10.0686 231.493 11.3351C231.786 11.6881 232.309 11.7483 232.677 11.4728C233.641 10.7477 234.79 10.3646 236.001 10.3646C239.032 10.3646 241.497 12.8042 241.497 15.801C241.497 18.7978 239.031 21.2374 236.001 21.2374H220.027C217.755 21.2374 215.905 19.4073 215.905 17.1593V17.1609Z" fill="white"/>
<path d="M202.336 21.2374H212.986C213.459 21.2374 213.845 21.6173 213.845 22.0875C213.845 22.5577 213.461 22.9377 212.986 22.9377H202.336C201.863 22.9377 201.477 22.5577 201.477 22.0875C201.477 21.6173 201.861 21.2374 202.336 21.2374Z" fill="white"/>
<path d="M198.557 15.9704H210.924C211.398 15.9704 211.783 16.3503 211.783 16.8205C211.783 17.2907 211.399 17.6707 210.924 17.6707H198.557C198.084 17.6707 197.698 17.2907 197.698 16.8205C197.698 16.3503 198.082 15.9704 198.557 15.9704Z" fill="white"/>
<path d="M193.404 15.9704H195.637C196.11 15.9704 196.496 16.3503 196.496 16.8205C196.496 17.2907 196.112 17.6707 195.637 17.6707H193.404C192.93 17.6707 192.545 17.2907 192.545 16.8205C192.545 16.3503 192.929 15.9704 193.404 15.9704Z" fill="white"/>
<path d="M214.359 12.4037H210.924C210.45 12.4037 210.065 12.0237 210.065 11.5535C210.065 11.0833 210.449 10.7034 210.924 10.7034H214.359C214.832 10.7034 215.218 11.0833 215.218 11.5535C215.218 12.0237 214.834 12.4037 214.359 12.4037Z" fill="white"/>
<path d="M208.003 12.4037H198.9C198.426 12.4037 198.041 12.0237 198.041 11.5535C198.041 11.0833 198.425 10.7034 198.9 10.7034H208.003C208.477 10.7034 208.863 11.0833 208.863 11.5535C208.863 12.0237 208.479 12.4037 208.003 12.4037Z" fill="white"/>
<path d="M746.134 125.727C746.134 128.351 748.291 130.485 750.943 130.485H767.261C770.481 130.485 773.101 127.893 773.101 124.708C773.101 121.523 770.481 118.931 767.261 118.931C767.132 118.931 767.002 118.936 766.872 118.944C766.45 115.026 763.087 111.965 759.016 111.965C754.659 111.965 751.115 115.472 751.115 119.781C751.115 120.183 751.145 120.584 751.207 120.978C751.119 120.973 751.031 120.97 750.943 120.97C748.291 120.97 746.134 123.104 746.134 125.727ZM747.851 125.727C747.851 124.041 749.239 122.669 750.943 122.669C751.327 122.669 751.702 122.738 752.059 122.875C752.371 122.995 752.726 122.924 752.966 122.693C753.206 122.461 753.29 122.115 753.179 121.801C752.949 121.151 752.832 120.47 752.832 119.78C752.832 116.408 755.605 113.662 759.016 113.662C762.426 113.662 765.2 116.406 765.2 119.78C765.2 119.8 765.2 119.821 765.2 119.84V119.908C765.192 120.172 765.312 120.424 765.52 120.589C765.73 120.753 766.003 120.813 766.263 120.748C766.589 120.668 766.925 120.627 767.261 120.627C769.534 120.627 771.384 122.457 771.384 124.705C771.384 126.953 769.536 128.783 767.261 128.783H750.943C749.239 128.783 747.851 127.41 747.851 125.724V125.727Z" fill="white"/>
<path d="M772.242 116.553H768.463C767.99 116.553 767.604 116.173 767.604 115.703C767.604 115.233 767.988 114.853 768.463 114.853H772.242C772.716 114.853 773.101 115.233 773.101 115.703C773.101 116.173 772.717 116.553 772.242 116.553Z" fill="white"/>
<path d="M779.97 121.141H773.615C773.141 121.141 772.756 120.761 772.756 120.291C772.756 119.821 773.14 119.441 773.615 119.441H779.97C780.444 119.441 780.83 119.821 780.83 120.291C780.83 120.761 780.446 121.141 779.97 121.141Z" fill="white"/>
<path d="M784.093 121.141H782.032C781.558 121.141 781.172 120.761 781.172 120.291C781.172 119.821 781.556 119.441 782.032 119.441H784.093C784.567 119.441 784.952 119.821 784.952 120.291C784.952 120.761 784.568 121.141 784.093 121.141Z" fill="white"/>
<path d="M774.303 126.747H787.356C787.83 126.747 788.216 127.127 788.216 127.597C788.216 128.067 787.832 128.447 787.356 128.447H774.303C773.829 128.447 773.444 128.067 773.444 127.597C773.444 127.127 773.828 126.747 774.303 126.747Z" fill="white"/>
</g>
<defs>
<clipPath id="clip0_9297_5896">
<rect width="795" height="175" fill="white"/>
</clipPath>
</defs>
</svg>
