<svg width="250" height="43" viewBox="0 0 250 43" fill="none" xmlns="http://www.w3.org/2000/svg">
<path d="M100.676 23.0298C100.357 23.3461 99.9777 23.5941 99.56 23.7581C99.1423 23.9222 98.6954 23.999 98.2469 23.9838H70.2843C70.7131 27.3357 72.3801 30.4059 74.9577 32.5911C77.5343 34.7751 80.6858 35.8671 84.412 35.8671C85.9794 35.8488 87.5323 35.5653 89.005 35.0286C90.4218 34.5651 91.7523 33.8704 92.9424 32.9726C93.6268 32.4147 94.487 32.1175 95.3699 32.1342C96.1775 32.0895 96.9705 32.363 97.5788 32.8961C97.9795 33.2018 98.3064 33.5935 98.5355 34.0424C98.7645 34.4913 98.8899 34.9858 98.9023 35.4896C98.9041 35.9371 98.7981 36.3784 98.5935 36.7764C98.3888 37.1743 98.0914 37.5172 97.7264 37.776C95.8658 39.2491 93.7603 40.3831 91.5064 41.126C88.5922 42.1806 85.4864 42.6005 82.3967 42.3577C79.3071 42.115 76.305 41.2152 73.5912 39.7185C70.4496 37.9642 67.8624 35.3649 66.1228 32.2152C64.2969 28.8788 63.3712 25.1246 63.4369 21.3218C63.3759 17.5231 64.2491 13.7676 65.9798 10.3855C67.5807 7.25884 70.0289 4.64565 73.0447 2.84459C76.1527 1.01669 79.7044 0.0809557 83.3095 0.140165C87.0878 0.140165 90.3501 1.00466 93.0964 2.73363C95.8613 4.48318 98.0596 6.99699 99.4248 9.97051C100.949 13.3144 101.704 16.9576 101.633 20.6318C101.646 21.0758 101.568 21.5176 101.403 21.9301C101.239 22.3426 100.991 22.7168 100.676 23.0298ZM74.5892 9.73901C72.3559 11.7706 70.9456 14.4872 70.3582 17.8888H94.8624C94.4207 14.4889 93.1946 11.7723 91.1839 9.73901C89.1733 7.70571 86.5483 6.68985 83.3091 6.69151C79.7281 6.69151 76.8215 7.70738 74.5892 9.73901Z" fill="#06BF5B"/>
<path d="M191.233 23.03C190.914 23.3461 190.534 23.5938 190.117 23.7578C189.699 23.9219 189.253 23.9988 188.804 23.9841H160.842C161.27 27.3356 162.937 30.4057 165.513 32.5914C168.09 34.7753 171.242 35.8673 174.97 35.8673C176.537 35.849 178.09 35.5655 179.563 35.0288C180.98 34.5658 182.31 33.8711 183.5 32.9729C184.185 32.4151 185.046 32.118 185.929 32.1344C186.736 32.0913 187.528 32.3646 188.136 32.8964C188.537 33.2021 188.864 33.5938 189.093 34.0427C189.322 34.4915 189.448 34.986 189.461 35.4898C189.463 35.9375 189.357 36.379 189.152 36.777C188.947 37.175 188.649 37.5177 188.284 37.7763C186.423 39.2491 184.318 40.383 182.065 41.1262C179.151 42.1811 176.045 42.6012 172.956 42.3585C169.866 42.1157 166.864 41.2158 164.15 39.7188C161.008 37.9643 158.421 35.365 156.68 32.2154C154.854 28.879 153.928 25.1245 153.994 21.3216C153.932 17.525 154.805 13.7714 156.534 10.3908C158.134 7.26411 160.582 4.65085 163.597 2.84994C166.706 1.02251 170.257 0.0868275 173.863 0.145523C177.64 0.145523 180.903 1.00995 183.65 2.73892C186.415 4.48815 188.614 7.00205 189.979 9.97578C191.501 13.3203 192.256 16.9634 192.186 20.6376C192.199 21.0804 192.121 21.5211 191.957 21.9325C191.793 22.344 191.546 22.7175 191.233 23.03ZM165.146 9.73934C162.913 11.7726 161.502 14.4892 160.915 17.8891H185.418C184.977 14.4892 183.75 11.7726 181.738 9.73934C179.727 7.70604 177.102 6.69018 173.865 6.69185C170.283 6.69118 167.377 7.70651 165.146 9.73781V9.73934Z" fill="#06BF5B"/>
<path d="M249.21 0.932464C249.762 1.57479 250.043 2.40631 249.995 3.25194C250.005 4.01599 249.879 4.77575 249.622 5.49543L238.564 39.8347C238.31 40.5627 237.841 41.1966 237.219 41.6527C236.6 42.1336 235.837 42.3924 235.052 42.3877C234.233 42.3974 233.432 42.1393 232.772 41.6527C232.139 41.2171 231.676 40.5743 231.465 39.8347L224.143 11.7608L216.448 39.8367C216.182 40.5749 215.695 41.2131 215.053 41.6642C214.411 42.1153 213.646 42.3573 212.862 42.3573C212.077 42.3573 211.312 42.1153 210.67 41.6642C210.028 41.2131 209.541 40.5749 209.275 39.8367L198.216 5.49738C198.013 4.79517 197.912 4.06745 197.916 3.33647C197.916 1.17151 198.962 0.0881997 201.055 0.0865331C201.92 0.0565433 202.763 0.360948 203.408 0.936492C204.143 1.69275 204.67 2.6251 204.94 3.64396L213.012 29.7079L220.634 3.02446C220.849 2.2014 221.305 1.46113 221.943 0.898468C222.623 0.335671 223.488 0.0459054 224.37 0.0854955C225.228 0.0544855 226.067 0.344309 226.724 0.898468C227.36 1.46234 227.815 2.20219 228.031 3.02446L234.755 30.2539L242.974 3.64842C243.672 1.27713 244.967 0.0908571 246.86 0.0895237C247.289 0.0541856 247.721 0.11111 248.126 0.256513C248.531 0.401915 248.901 0.632382 249.21 0.932464Z" fill="#06BF5B"/>
<path d="M50.5094 4.86548C49.0084 3.28279 47.184 2.04198 45.1605 1.22741C43.137 0.412844 40.9618 0.0436266 38.7829 0.144912C36.6039 0.246198 34.4723 0.815608 32.5331 1.81438C30.5939 2.81315 28.8926 4.21785 27.5448 5.93296C27.2497 5.56122 26.9356 5.20491 26.6038 4.86548C25.1815 3.37504 23.4729 2.18714 21.5805 1.37292C19.688 0.558701 17.6507 0.134969 15.5905 0.12709C7.01414 0.12709 0.00225049 7.38694 0.00225049 16.2633V38.7129C-0.0148003 39.1938 0.0651771 39.6733 0.237446 40.1226C0.409714 40.5719 0.670739 40.9819 1.00492 41.3281C1.3391 41.6744 1.73959 41.9497 2.18251 42.1378C2.62544 42.3259 3.10174 42.4228 3.58294 42.4228C4.06415 42.4228 4.54041 42.3259 4.98334 42.1378C5.42627 41.9497 5.82678 41.6744 6.16096 41.3281C6.49514 40.9819 6.75614 40.5719 6.92841 40.1226C7.10068 39.6733 7.18068 39.1938 7.16363 38.7129L7.24212 16.6283C7.19212 11.9884 10.6921 8.13493 15.1675 7.89893C17.3582 7.81788 19.4946 8.59142 21.1257 10.0561C22.7567 11.5208 23.7547 13.5621 23.9088 15.7488V15.7833C23.9415 16.0636 23.9569 16.3456 23.9549 16.6278L24.0229 38.7124C24.0058 39.1941 24.0859 39.6742 24.2584 40.1242C24.431 40.5742 24.6924 40.9848 25.0271 41.3316C25.3618 41.6784 25.7629 41.9541 26.2065 42.1425C26.6501 42.3309 27.1271 42.428 27.609 42.428C28.091 42.428 28.568 42.3309 29.0116 42.1425C29.4552 41.9541 29.8563 41.6784 30.191 41.3316C30.5257 40.9848 30.7871 40.5742 30.9596 40.1242C31.1322 39.6742 31.2123 39.1941 31.1952 38.7124V16.6303C31.2082 11.8554 34.9452 7.98793 39.5571 7.97443C44.1635 7.99893 47.8905 11.8619 47.907 16.6303V38.7149H47.9195C47.9024 39.1966 47.9825 39.6767 48.1551 40.1267C48.3276 40.5767 48.589 40.9873 48.9237 41.3341C49.2584 41.6809 49.6595 41.9566 50.1031 42.145C50.5467 42.3334 51.0237 42.4305 51.5057 42.4305C51.9876 42.4305 52.4646 42.3334 52.9082 42.145C53.3518 41.9566 53.7529 41.6809 54.0876 41.3341C54.4223 40.9873 54.6837 40.5767 54.8562 40.1267C55.0288 39.6767 55.1089 39.1966 55.0918 38.7149V16.2653C55.0962 12.0155 53.4534 7.92943 50.5084 4.86548H50.5094Z" fill="#06BF5B"/>
<path d="M140.848 5.60593C139.166 3.84134 137.145 2.43509 134.906 1.47172C132.666 0.508341 130.255 0.00771264 127.818 0C117.668 0 109.361 8.59641 109.361 19.0917V38.7199C109.348 39.6552 109.681 40.5624 110.296 41.2671C110.911 41.9718 111.765 42.4242 112.693 42.5373C113.621 42.6231 114.547 42.3582 115.29 41.795C116.032 41.2318 116.536 40.411 116.703 39.4944C116.809 38.9832 116.809 38.4557 116.703 37.9444V19.3472C116.703 12.9943 121.68 7.84393 127.818 7.84393C133.956 7.84393 138.933 12.9938 138.933 19.3472V38.6719C138.917 39.1635 139 39.6533 139.176 40.1122C139.353 40.5711 139.621 40.9896 139.963 41.3431C140.305 41.6966 140.714 41.9777 141.167 42.1696C141.62 42.3616 142.107 42.4604 142.598 42.4604C143.09 42.4604 143.577 42.3616 144.03 42.1696C144.483 41.9777 144.892 41.6966 145.234 41.3431C145.576 40.9896 145.844 40.5711 146.02 40.1122C146.197 39.6533 146.28 39.1635 146.264 38.6719V19.0822C146.272 14.0582 144.33 9.22706 140.848 5.60593Z" fill="#06BF5B"/>
</svg>
