<svg width="15" height="15" viewBox="0 0 15 15" fill="none" xmlns="http://www.w3.org/2000/svg">
<g clip-path="url(#clip0_9302_6347)">
<path d="M9.01435 10.1797C8.82787 10.1797 8.64903 10.2538 8.51717 10.3857C8.3853 10.5175 8.31122 10.6964 8.31122 10.8829V12.5958C8.31099 12.8591 8.20632 13.1116 8.02018 13.2978C7.83404 13.484 7.58163 13.5887 7.31835 13.589H2.4041C2.14081 13.5887 1.88841 13.484 1.70227 13.2978C1.51613 13.1116 1.41146 12.8591 1.41122 12.5958V2.40405C1.41146 2.14077 1.51613 1.88834 1.70227 1.70214C1.88841 1.51594 2.14081 1.4112 2.4041 1.41089H7.31835C7.58163 1.4112 7.83404 1.51594 8.02018 1.70214C8.20632 1.88834 8.31099 2.14077 8.31122 2.40405V3.88472C8.31122 4.0712 8.3853 4.25004 8.51717 4.3819C8.64903 4.51376 8.82787 4.58784 9.01435 4.58784C9.20083 4.58784 9.37967 4.51376 9.51153 4.3819C9.64339 4.25004 9.71747 4.0712 9.71747 3.88472V2.40405C9.7167 1.76798 9.4637 1.15817 9.01395 0.70837C8.5642 0.258569 7.95443 0.00549147 7.31835 0.00463867H2.4041C1.76802 0.00549147 1.15825 0.258569 0.708499 0.70837C0.258753 1.15817 0.0057495 1.76798 0.00497437 2.40405V12.5958C0.0057495 13.2319 0.258753 13.8417 0.708499 14.2915C1.15825 14.7413 1.76802 14.9944 2.4041 14.9953H7.31835C7.95443 14.9944 8.5642 14.7413 9.01395 14.2915C9.4637 13.8417 9.7167 13.2319 9.71747 12.5958V10.8829C9.71747 10.6964 9.64339 10.5175 9.51153 10.3857C9.37967 10.2538 9.20083 10.1797 9.01435 10.1797Z" fill="black"/>
<path d="M14.9793 6.9881L12.477 4.48761C12.3469 4.35748 12.1709 4.28358 11.9868 4.28177C11.8028 4.27996 11.6254 4.3504 11.4927 4.47795C11.2085 4.75129 11.2152 5.21418 11.4941 5.49308L12.797 6.79679H6.70322C6.51674 6.79679 6.33789 6.87087 6.20603 7.00273C6.07417 7.13459 6.00009 7.31344 6.00009 7.49992C6.00009 7.6864 6.07417 7.86524 6.20603 7.9971C6.33789 8.12896 6.51674 8.20304 6.70322 8.20304H12.797L11.4815 9.51847C11.3496 9.65033 11.2755 9.82918 11.2755 10.0157C11.2755 10.2022 11.3495 10.3811 11.4814 10.513C11.6132 10.6449 11.7921 10.719 11.9786 10.719C12.1651 10.719 12.344 10.645 12.4759 10.5131L14.9793 8.01086C15.0465 7.94375 15.0999 7.86404 15.1363 7.77629C15.1727 7.68854 15.1914 7.59448 15.1914 7.49948C15.1914 7.40448 15.1727 7.31041 15.1363 7.22266C15.0999 7.13492 15.0465 7.05521 14.9793 6.9881Z" fill="black"/>
</g>
<defs>
<clipPath id="clip0_9302_6347">
<rect width="15" height="15" fill="white"/>
</clipPath>
</defs>
</svg>
