<svg width="20" height="20" viewBox="0 0 20 20" fill="none" xmlns="http://www.w3.org/2000/svg">
<path d="M8.75 1C7.01942 1 5.32769 1.51318 3.88876 2.47464C2.44983 3.4361 1.32832 4.80267 0.666058 6.40152C0.00379132 8.00037 -0.169488 9.7597 0.168133 11.457C0.505753 13.1544 1.33911 14.7135 2.56282 15.9372C3.78653 17.1609 5.34563 17.9942 7.04296 18.3319C8.7403 18.6695 10.4996 18.4962 12.0985 17.8339C13.6973 17.1717 15.0639 16.0502 16.0254 14.6112C16.9868 13.1723 17.5 11.4806 17.5 9.75C17.4972 7.43021 16.5745 5.20622 14.9341 3.56588C13.2938 1.92554 11.0698 1.00278 8.75 1ZM8.16667 5.08333C8.16667 4.92862 8.22813 4.78025 8.33752 4.67085C8.44692 4.56146 8.59529 4.5 8.75 4.5C8.90471 4.5 9.05309 4.56146 9.16248 4.67085C9.27188 4.78025 9.33334 4.92862 9.33334 5.08333V9.16666C9.33334 9.32137 9.27188 9.46975 9.16248 9.57914C9.05309 9.68854 8.90471 9.75 8.75 9.75C8.59529 9.75 8.44692 9.68854 8.33752 9.57914C8.22813 9.46975 8.16667 9.32137 8.16667 9.16666V5.08333ZM8.75 15C7.35828 14.9978 6.02418 14.444 5.04008 13.4599C4.05598 12.4758 3.50216 11.1417 3.5 9.75C3.49745 8.96274 3.67357 8.18517 4.0151 7.47585C4.35662 6.76652 4.85465 6.14394 5.47167 5.655C5.53041 5.59955 5.60003 5.55691 5.67611 5.52977C5.75219 5.50263 5.83308 5.49159 5.91365 5.49735C5.99422 5.5031 6.07272 5.52553 6.14417 5.56321C6.21562 5.60088 6.27847 5.65299 6.32873 5.71622C6.37899 5.77946 6.41558 5.85244 6.43616 5.93055C6.45674 6.00866 6.46088 6.09019 6.44831 6.16999C6.43574 6.24978 6.40673 6.32609 6.36313 6.39409C6.31952 6.46208 6.26227 6.52028 6.195 6.565C5.53533 7.09415 5.05623 7.81506 4.82385 8.62818C4.59147 9.44131 4.61729 10.3065 4.89774 11.1043C5.17818 11.9022 5.69942 12.5932 6.38947 13.0821C7.07951 13.571 7.90433 13.8335 8.75 13.8335C9.59568 13.8335 10.4205 13.571 11.1105 13.0821C11.8006 12.5932 12.3218 11.9022 12.6023 11.1043C12.8827 10.3065 12.9085 9.44131 12.6762 8.62818C12.4438 7.81506 11.9647 7.09415 11.305 6.565C11.1987 6.46468 11.134 6.32813 11.1236 6.18236C11.1132 6.03659 11.1578 5.89222 11.2488 5.77782C11.3397 5.66342 11.4703 5.58732 11.6146 5.56457C11.759 5.54183 11.9066 5.5741 12.0283 5.655C12.6454 6.14394 13.1434 6.76652 13.4849 7.47585C13.8264 8.18517 14.0026 8.96274 14 9.75C13.9978 11.1417 13.444 12.4758 12.4599 13.4599C11.4758 14.444 10.1417 14.9978 8.75 15Z" fill="white"/>
</svg>
