<?xml version="1.0" encoding="utf-8"?>
<!-- Generator: Adobe Illustrator 26.3.1, SVG Export Plug-In . SVG Version: 6.00 Build 0)  -->
<svg version="1.1" id="Layer_1" xmlns="http://www.w3.org/2000/svg" xmlns:xlink="http://www.w3.org/1999/xlink" x="0px" y="0px"
	 viewBox="0 0 72 72" style="enable-background:new 0 0 72 72;" xml:space="preserve">
<style type="text/css">
	.st0{fill:#06BF5B;}
</style>
<path id="Path_994" class="st0" d="M63.18,16.58c-6.83-7.2-18.21-7.5-25.41-0.67c-0.63,0.6-1.22,1.25-1.76,1.94
	c-0.35-0.44-0.72-0.86-1.11-1.26c-3.4-3.56-8.11-5.59-13.03-5.61c-10.15,0-18.45,8.59-18.45,19.1v26.57
	c-0.08,2.34,1.75,4.3,4.09,4.39c2.34,0.08,4.3-1.75,4.39-4.09c0-0.1,0-0.2,0-0.3l0.09-26.14c-0.06-5.49,4.08-10.05,9.38-10.33
	c5.39-0.2,9.97,3.91,10.35,9.29v0.04c0.04,0.33,0.06,0.67,0.05,1l0.08,26.14c-0.08,2.34,1.75,4.31,4.09,4.39
	c2.34,0.08,4.31-1.75,4.39-4.09c0-0.1,0-0.2,0-0.3V30.5c0.02-5.65,4.44-10.23,9.9-10.24c5.45,0.03,9.86,4.6,9.88,10.24v26.14h0.01
	c-0.08,2.34,1.75,4.31,4.09,4.39c2.34,0.08,4.31-1.75,4.39-4.09c0-0.1,0-0.2,0-0.3V30.07C68.6,25.04,66.66,20.2,63.18,16.58
	L63.18,16.58z"/>
</svg>
