<?xml version="1.0" encoding="utf-8"?>
<!-- Generator: Adobe Illustrator 26.3.1, SVG Export Plug-In . SVG Version: 6.00 Build 0)  -->
<svg version="1.1" id="Layer_1" xmlns="http://www.w3.org/2000/svg" xmlns:xlink="http://www.w3.org/1999/xlink" x="0px" y="0px"
	 viewBox="0 0 300 300" style="enable-background:new 0 0 300 300;" xml:space="preserve">
<style type="text/css">
	.st0{fill:#E2574C;}
</style>
<g>
	<path class="st0" d="M238.62,119.99c-3.91-40.79-37.88-72.79-79.68-72.79c-32.35,0-60.05,19.2-72.82,46.75
		c-3.84-1.22-7.85-2.06-12.1-2.06c-22.21,0-40.23,18.02-40.23,40.23c0,4.42,0.88,8.59,2.2,12.55
		c-17.28,10.07-29.02,28.58-29.02,50.01c0,32.09,26.01,58.1,58.1,58.1v0.01h160.9v-0.01c37.03,0,67.04-30.01,67.04-67.04
		C293.02,153.06,269.6,125.91,238.62,119.99z M191.22,204.61c-4.22,4.23-11.05,4.23-15.27,0l-21.68-21.67l-21.4,21.41
		c-4.21,4.2-11.01,4.2-15.22,0c-4.2-4.21-4.2-11.01,0-15.22l21.4-21.4l-21.67-21.67c-4.22-4.23-4.22-11.06,0-15.28
		c4.22-4.23,11.05-4.23,15.27,0l21.67,21.68L176,130.77c4.21-4.21,11.01-4.21,15.22,0c4.21,4.21,4.21,11.02,0,15.22l-21.69,21.69
		l21.68,21.67C195.45,193.56,195.45,200.41,191.22,204.61z"/>
</g>
</svg>
