<?xml version="1.0" encoding="utf-8"?>
<!-- Generator: Adobe Illustrator 26.3.1, SVG Export Plug-In . SVG Version: 6.00 Build 0)  -->
<svg version="1.1" id="Layer_1" xmlns="http://www.w3.org/2000/svg" xmlns:xlink="http://www.w3.org/1999/xlink" x="0px" y="0px"
	 viewBox="0 0 35 35" style="enable-background:new 0 0 35 35;" xml:space="preserve">
<style type="text/css">
	.st0{fill-rule:evenodd;clip-rule:evenodd;}
	.st1{fill-rule:evenodd;clip-rule:evenodd;fill:#E2E7F0;}
	.st2{fill-rule:evenodd;clip-rule:evenodd;fill:#FFFFFF;}
	.st3{fill-rule:evenodd;clip-rule:evenodd;fill:#9DACBA;}
	.st4{fill-rule:evenodd;clip-rule:evenodd;fill:#DD352E;}
</style>
<g id="Layer_x0020_1">
	<path class="st0" d="M24.36,25.88l-0.81-0.76c-0.05,0.05-0.15,0.05-0.25,0.05H11.71c-0.46,0-0.81-0.36-0.81-0.81V12.47l-1.78-1.83
		c-1.52,1.88-2.44,4.27-2.44,6.86c0,5.94,4.88,10.82,10.82,10.82C20.09,28.32,22.48,27.4,24.36,25.88z M22.38,20.5h-0.3l1.42,1.42
		v-8.99h-2.74H20.7h-0.05H20.6v-0.05h-0.05v-0.05H20.5v-0.05v-0.05h-0.05v-0.05v-0.05v-2.18h-8.43l1.37,1.37h6.2
		c0.15,0,0.3,0.15,0.3,0.3s-0.15,0.3-0.3,0.3H14l2.08,2.08h6.3c0.2,0,0.3,0.15,0.3,0.3s-0.1,0.3-0.3,0.3h-5.69l2.08,2.08h3.61
		c0.2,0,0.3,0.15,0.3,0.3s-0.1,0.3-0.3,0.3h-3l2.08,2.08h0.91c0.2,0,0.3,0.15,0.3,0.3S22.58,20.5,22.38,20.5z M18.92,20.5h-6.3
		c-0.2,0-0.3-0.15-0.3-0.3s0.1-0.3,0.3-0.3h5.69l-2.08-2.08h-3.61c-0.2,0-0.3-0.15-0.3-0.3s0.1-0.3,0.3-0.3h3l-2.08-2.08h-0.91
		c-0.2,0-0.3-0.15-0.3-0.3s0.1-0.3,0.3-0.3h0.3l-1.42-1.42v11.27c0,0.1,0.1,0.2,0.2,0.2h11.27l-1.37-1.37h-8.99
		c-0.2,0-0.3-0.15-0.3-0.3s0.1-0.3,0.3-0.3H21L18.92,20.5z M11.46,9.88c0.05-0.05,0.15-0.05,0.25-0.05h9.04h0.05
		c0.05,0,0.05,0.05,0.1,0.05h0.05v0.05L24,12.42h0.05v0.05v0.05c0.05,0,0.05,0.05,0.05,0.05v0.05v9.9l1.78,1.83
		c1.52-1.88,2.44-4.27,2.44-6.86c0-5.94-4.88-10.82-10.82-10.82c-2.59,0-4.98,0.91-6.86,2.44L11.46,9.88z M21.05,12.32h1.88
		l-1.88-1.52V12.32z M17.5,30.5c-3.45,0-6.75-1.37-9.19-3.81S4.5,20.95,4.5,17.5s1.37-6.75,3.81-9.19S14.05,4.5,17.5,4.5
		s6.75,1.37,9.19,3.81s3.81,5.74,3.81,9.19s-1.37,6.75-3.81,9.19S20.95,30.5,17.5,30.5z M17.5,5.11c-6.86,0-12.39,5.54-12.39,12.39
		s5.54,12.39,12.39,12.39s12.39-5.54,12.39-12.39S24.36,5.11,17.5,5.11z M9.22,9.58h0.05V9.53h0.05l0.1-0.1l0.1-0.1l0.05-0.1h0.05
		V9.17h0.05c2.13-1.98,4.88-3.1,7.82-3.1c3.05,0,5.94,1.17,8.07,3.35c2.18,2.13,3.35,5.03,3.35,8.07c0,3-1.12,5.79-3.2,7.92v0.05
		h-0.05c-0.05,0.05-0.05,0.05-0.1,0.1s-0.05,0.05-0.1,0.1v0.05h-0.05v0.05h-0.05c-2.13,2.03-4.93,3.15-7.87,3.15
		c-3.05,0-5.94-1.17-8.07-3.35c-2.18-2.13-3.35-5.03-3.35-8.07C6.07,14.55,7.19,11.71,9.22,9.58z M10.19,9.53
		c-0.2,0.2-0.46,0.46-0.66,0.66l15.29,15.29l0.66-0.66l-1.88-1.93l-2.49-2.49l-2.69-2.69l-2.69-2.69l-2.69-2.69l-1.88-1.83
		L10.19,9.53z"/>
	<path class="st1" d="M16.08,14.5h6.3c0.41,0,0.41,0.61,0,0.61h-5.69l2.08,2.08h3.61c0.41,0,0.41,0.61,0,0.61h-3l2.08,2.08h0.91
		c0.41,0,0.41,0.61,0,0.61h-0.3l1.42,1.42v-8.99h-2.74H20.7h-0.05H20.6v-0.05h-0.05l-0.1-0.15v-0.1v-2.18h-8.43l1.37,1.37h6.2
		c0.41,0,0.41,0.61,0,0.61H14L16.08,14.5z"/>
	<path class="st2" d="M24.1,12.62v9.9l1.78,1.83c1.52-1.88,2.44-4.27,2.44-6.86c0-5.94-4.88-10.82-10.82-10.82
		c-2.59,0-4.98,0.91-6.86,2.44l0.81,0.76c0.05-0.05,0.15-0.05,0.25-0.05h9.04l0.2,0.1L24,12.42C24.05,12.47,24.1,12.57,24.1,12.62z"
		/>
	<path class="st3" d="M21.05,12.32h1.88l-1.88-1.52V12.32z"/>
	<path class="st1" d="M16.23,17.8h-3.61c-0.41,0-0.41-0.61,0-0.61h3l-2.08-2.08h-0.91c-0.41,0-0.41-0.61,0-0.61h0.3l-1.42-1.42
		v11.27c0,0.1,0.1,0.2,0.2,0.2h11.27l-1.37-1.37h-8.99c-0.41,0-0.41-0.61,0-0.61H21l-2.08-2.08h-6.3c-0.41,0-0.41-0.61,0-0.61h5.69
		L16.23,17.8z"/>
	<path class="st2" d="M10.9,24.36V12.47l-1.78-1.83c-1.52,1.88-2.44,4.27-2.44,6.86c0,5.94,4.88,10.82,10.82,10.82
		c2.59,0,4.98-0.91,6.86-2.44l-0.81-0.76c-0.05,0.05-0.15,0.05-0.25,0.05H11.71C11.25,25.17,10.9,24.81,10.9,24.36z"/>
	<g>
		<path class="st4" d="M17.5,28.93c-6.3,0-11.43-5.13-11.43-11.43c0-2.95,1.12-5.79,3.15-7.92l0.2-0.15
			c2.18-2.18,4.98-3.35,8.07-3.35c6.3,0,11.43,5.13,11.43,11.43S23.8,28.93,17.5,28.93z M5.11,17.5c0,6.86,5.54,12.39,12.39,12.39
			s12.39-5.54,12.39-12.39S24.36,5.11,17.5,5.11S5.11,10.64,5.11,17.5z"/>
		<path class="st4" d="M9.53,10.19l15.29,15.29l0.66-0.66L10.19,9.53C9.98,9.73,9.73,9.98,9.53,10.19z"/>
	</g>
</g>
</svg>
