<?xml version="1.0" encoding="utf-8"?>
<!-- Generator: Adobe Illustrator 26.3.1, SVG Export Plug-In . SVG Version: 6.00 Build 0)  -->
<svg version="1.1" id="Layer_1" xmlns="http://www.w3.org/2000/svg" xmlns:xlink="http://www.w3.org/1999/xlink" x="0px" y="0px"
	 viewBox="0 0 35 35" style="enable-background:new 0 0 35 35;" xml:space="preserve">
<g>
	<circle cx="17.5" cy="25.53" r="1.85"/>
	<path d="M5.52,14.47c0.49,0.48,1.27,0.46,1.75-0.03c2.73-2.82,6.37-4.37,10.23-4.38c1.21,0,2.39,0.16,3.54,0.46l-1.76,2.64
		C18.69,13.07,18.1,13,17.5,13c-3.14,0-6.08,1.26-8.3,3.54c-0.47,0.49-0.46,1.27,0.03,1.75c0.49,0.47,1.27,0.46,1.75-0.03
		c1.74-1.8,4.06-2.79,6.52-2.79c0.08,0,0.15,0.02,0.23,0.02l-2.18,3.26c-0.99,0.31-1.9,0.84-2.64,1.61
		c-0.47,0.49-0.46,1.27,0.03,1.75c0.08,0.08,0.17,0.13,0.26,0.18l-3.87,5.81c-0.28,0.43-0.17,1,0.26,1.28
		c0.16,0.11,0.34,0.16,0.51,0.16c0.3,0,0.59-0.14,0.77-0.41L25.69,6.89c0.28-0.43,0.17-1-0.26-1.28c-0.42-0.28-1-0.17-1.28,0.26
		l-1.68,2.52c-1.59-0.5-3.25-0.79-4.97-0.79c-4.54,0-8.8,1.82-12,5.13C5.02,13.21,5.03,14,5.52,14.47L5.52,14.47z"/>
	<path d="M28.62,14.82c0.31,0,0.62-0.12,0.86-0.35c0.49-0.47,0.5-1.26,0.03-1.75c-1.26-1.3-2.7-2.36-4.25-3.18l-1.38,2.07
		c1.4,0.71,2.71,1.65,3.85,2.83C27.97,14.69,28.29,14.82,28.62,14.82L28.62,14.82z"/>
	<path d="M24.91,18.64c0.31,0,0.62-0.12,0.86-0.35c0.49-0.47,0.5-1.26,0.03-1.75c-1.04-1.07-2.24-1.9-3.54-2.5l-1.4,2.1
		c1.17,0.47,2.25,1.18,3.16,2.12C24.27,18.52,24.59,18.64,24.91,18.64L24.91,18.64z"/>
	<path d="M21.21,22.46c0.31,0,0.62-0.12,0.86-0.35c0.49-0.47,0.5-1.26,0.03-1.75c-0.82-0.84-1.82-1.41-2.91-1.7l-1.52,2.28
		c0.98,0.04,1.94,0.41,2.66,1.15C20.56,22.34,20.88,22.46,21.21,22.46z"/>
</g>
</svg>
