<svg width="18" height="20" viewBox="0 0 18 20" fill="none" xmlns="http://www.w3.org/2000/svg">
<path d="M0 0H18V20H0V0Z" stroke="#E5E7EB"/>
<g clip-path="url(#clip0_11567_8243)">
<path d="M3 4C3 2.89688 3.89687 2 5 2H13C14.1031 2 15 2.89688 15 4V16H17C17.5531 16 18 16.4469 18 17C18 17.5531 17.5531 18 17 18H13.5H4.5H1C0.446875 18 0 17.5531 0 17C0 16.4469 0.446875 16 1 16H3V4ZM12 11C12.2652 11 12.5196 10.8946 12.7071 10.7071C12.8946 10.5196 13 10.2652 13 10C13 9.73478 12.8946 9.48043 12.7071 9.29289C12.5196 9.10536 12.2652 9 12 9C11.7348 9 11.4804 9.10536 11.2929 9.29289C11.1054 9.48043 11 9.73478 11 10C11 10.2652 11.1054 10.5196 11.2929 10.7071C11.4804 10.8946 11.7348 11 12 11Z" fill="#DC2626"/>
</g>
<defs>
<clipPath id="clip0_11567_8243">
<path d="M0 2H18V18H0V2Z" fill="white"/>
</clipPath>
</defs>
</svg>
