<svg width="20" height="20" viewBox="0 0 20 20" fill="none" xmlns="http://www.w3.org/2000/svg">
<g clip-path="url(#clip0_9382_8166)">
<g clip-path="url(#clip1_9382_8166)">
<path d="M1.37022 20H15.8894C16.0815 20 16.2174 19.8227 16.2174 19.6304V12.1248L20.8661 7.47571C21.003 7.3412 21.0051 7.12126 20.8707 6.98421L19.0209 5.13196C18.8818 4.99626 18.6598 4.99609 18.5205 5.13162L16.2174 7.42086V3.8891C16.2211 3.79806 16.1878 3.70941 16.1253 3.643L12.6107 0.112602C12.5486 0.0443274 12.4618 0.00373641 12.3695 0H1.37022C1.17831 0 1.04346 0.17731 1.04346 0.369395V19.6306C1.04346 19.8227 1.17831 20 1.37022 20ZM12.4745 12.4614L13.5462 13.5331L11.9363 14.0713L12.4745 12.4614ZM14.1893 13.1924L12.815 11.8183L17.2288 7.4144L18.5932 8.77887L14.1893 13.1924ZM18.7772 5.86957L20.1381 7.23047L19.0844 8.28652L17.7213 6.92306L18.7772 5.86957ZM12.7391 1.20907L15.0497 3.52174H12.7391V1.20907ZM1.73911 0.695652H12.0435V3.8891C12.0394 3.97707 12.0722 4.06267 12.1343 4.125C12.1963 4.1875 12.2816 4.22096 12.3695 4.21739H15.5217V8.11498L12.0672 11.5715C12.0307 11.6072 12.0035 11.6512 11.9881 11.6997L11.4976 13.1739H3.9869C3.79482 13.1739 3.63908 13.3297 3.63908 13.5217C3.63908 13.7138 3.79482 13.8696 3.9869 13.8696H11.2653L11.0557 14.5044C11.0139 14.6281 11.0465 14.7649 11.1396 14.8565C11.164 14.8809 11.1917 14.913 11.2211 14.913H3.9869C3.79482 14.913 3.63908 15.0688 3.63908 15.2609C3.63908 15.453 3.79482 15.6087 3.9869 15.6087H13.2479C13.4402 15.6087 13.5958 15.453 13.5958 15.2609C13.5958 15.0688 13.4402 14.913 13.2479 14.913H11.5657L14.2999 14.0066C14.348 13.9908 14.3915 13.9631 14.4261 13.9265L15.5217 12.822V19.3043H1.73911V0.695652Z" fill="white"/>
<path d="M13.248 16.6523H3.98693C3.79484 16.6523 3.6391 16.8081 3.6391 17.0002C3.6391 17.1923 3.79484 17.348 3.98693 17.348H13.248C13.4402 17.348 13.5958 17.1923 13.5958 17.0002C13.5958 16.8081 13.4402 16.6523 13.248 16.6523Z" fill="white"/>
<path d="M3.98693 12.1302H8.90014C9.09239 12.1302 9.24797 11.9745 9.24797 11.7824C9.24797 11.5903 9.09239 11.4346 8.90014 11.4346H3.98693C3.79484 11.4346 3.6391 11.5903 3.6391 11.7824C3.6391 11.9745 3.79484 12.1302 3.98693 12.1302Z" fill="white"/>
</g>
</g>
<defs>
<clipPath id="clip0_9382_8166">
<rect width="20" height="20" fill="white"/>
</clipPath>
<clipPath id="clip1_9382_8166">
<rect width="20" height="20" fill="white" transform="translate(1)"/>
</clipPath>
</defs>
</svg>
