<svg width="15" height="15" viewBox="0 0 15 15" fill="none" xmlns="http://www.w3.org/2000/svg">
<path d="M14.8284 8.01935L13.1712 6.36205C13.0613 6.25216 12.9122 6.19043 12.7568 6.19043C12.6014 6.19043 12.4524 6.25216 12.3425 6.36205L7.27816 11.4264C6.86783 11.8367 6.5908 12.3544 6.47698 12.9234L6.20182 14.2992C6.16339 14.4913 6.22353 14.6899 6.36205 14.8284C6.47303 14.9394 6.62253 15 6.77639 15C6.8146 15 6.85309 14.9963 6.8913 14.9886L8.26705 14.7135H8.26708C8.83611 14.5997 9.35376 14.3226 9.76412 13.9123L14.8284 8.84798C15.0572 8.61917 15.0572 8.24818 14.8284 8.01935ZM8.93543 13.0837C8.68925 13.3299 8.37864 13.4961 8.03724 13.5644L7.52332 13.6671L7.62609 13.1532C7.69438 12.8118 7.86061 12.5012 8.10682 12.255L12.7568 7.60497L13.5855 8.4336L8.93543 13.0837Z" fill="black"/>
<path d="M4.38659 13.8281H1.75781C1.43473 13.8281 1.17188 13.5653 1.17188 13.2422V1.75781C1.17188 1.43473 1.43473 1.17188 1.75781 1.17188H7.03125V2.92969C7.03125 3.89895 7.8198 4.6875 8.78906 4.6875H10.5469V5.086C10.5469 5.40961 10.8092 5.67193 11.1328 5.67193C11.4564 5.67193 11.7188 5.40961 11.7188 5.086V4.10153C11.7188 3.94292 11.6518 3.79084 11.5468 3.68695L8.03153 0.171621C7.9234 0.0635156 7.77196 0 7.61719 0H1.75781C0.788555 0 0 0.788555 0 1.75781V13.2422C0 14.2114 0.788555 15 1.75781 15H4.38659C4.71021 15 4.97253 14.7377 4.97253 14.4141C4.97253 14.0904 4.71018 13.8281 4.38659 13.8281ZM8.78906 3.51562C8.46598 3.51562 8.20312 3.25277 8.20312 2.92969V2.00051L9.71824 3.51562H8.78906Z" fill="black"/>
<path d="M9.375 6.21094C9.375 5.88732 9.11268 5.625 8.78906 5.625H2.92969C2.60607 5.625 2.34375 5.88732 2.34375 6.21094C2.34375 6.53455 2.60607 6.79688 2.92969 6.79688H8.78906C9.11268 6.79688 9.375 6.53455 9.375 6.21094Z" fill="black"/>
<path d="M2.92969 7.96875C2.60607 7.96875 2.34375 8.23107 2.34375 8.55469C2.34375 8.8783 2.60607 9.14062 2.92969 9.14062H7.66412C7.98773 9.14062 8.25006 8.8783 8.25006 8.55469C8.25006 8.23107 7.98773 7.96875 7.66412 7.96875H2.92969Z" fill="black"/>
<path d="M5.4484 10.3125H2.92969C2.60607 10.3125 2.34375 10.5748 2.34375 10.8984C2.34375 11.2221 2.60607 11.4844 2.92969 11.4844H5.4484C5.77201 11.4844 6.03434 11.2221 6.03434 10.8984C6.03434 10.5748 5.77201 10.3125 5.4484 10.3125Z" fill="black"/>
</svg>
