<svg width="17" height="17" viewBox="0 0 17 17" fill="none" xmlns="http://www.w3.org/2000/svg">
<g clip-path="url(#clip0_9302_6358)">
<path fill-rule="evenodd" clip-rule="evenodd" d="M16.8243 5.81722L16.1394 5.54696C16.0397 5.17207 15.8943 4.81261 15.7058 4.47482L16.0039 3.78678C16.05 3.68053 16.0274 3.55616 15.9472 3.47394L15.0033 2.5064C14.9231 2.42419 14.8019 2.40107 14.6982 2.44825L14.0268 2.75393C13.6973 2.56072 13.3467 2.41175 12.9812 2.30958L12.7175 1.60727C12.6768 1.49874 12.5751 1.42717 12.4617 1.42717H11.1268C11.0134 1.42717 10.9117 1.49877 10.871 1.60727L10.6072 2.30961C10.2418 2.41175 9.89119 2.56075 9.56168 2.75396L8.89028 2.44829C8.78657 2.40107 8.66534 2.42419 8.5851 2.50644L7.64123 3.47401C7.56102 3.55623 7.53851 3.68057 7.58454 3.78685L7.88272 4.475C7.69421 4.81275 7.54889 5.17211 7.44922 5.54689L6.76418 5.81722C6.65834 5.85899 6.58849 5.96324 6.58849 6.07953V7.44785C6.58849 7.56415 6.65834 7.6684 6.76418 7.71017L7.44908 7.98043C7.54879 8.35528 7.69418 8.71481 7.88265 9.05253L7.58454 9.74054C7.53851 9.84682 7.56102 9.97116 7.64123 10.0534L8.5851 11.021C8.66534 11.1032 8.7866 11.1263 8.89028 11.0791L9.56171 10.7734C9.89122 10.9666 10.2418 11.1156 10.6072 11.2177L10.871 11.92C10.9117 12.0286 11.0134 12.1001 11.1268 12.1001H12.4617C12.5751 12.1001 12.6768 12.0285 12.7175 11.92L12.9812 11.2179C13.3469 11.1157 13.6975 10.9667 14.0271 10.7735L14.6982 11.0791C14.8018 11.1263 14.9231 11.1032 15.0034 11.021L15.9472 10.0534C16.0274 9.97116 16.05 9.84682 16.0039 9.74054L15.7057 9.05225C15.8942 8.7145 16.0395 8.3551 16.1392 7.9805L16.8243 7.71017C16.9301 7.66843 17 7.56415 17 7.44785V6.07953C17 5.96324 16.9301 5.85896 16.8243 5.81722ZM16.4516 7.25486L15.81 7.50801C15.7257 7.54128 15.6627 7.61506 15.6418 7.70525C15.5449 8.12258 15.3842 8.51996 15.1641 8.88634C15.1167 8.96529 15.1104 9.06307 15.147 9.14778L15.4263 9.79236L14.7487 10.487L14.1201 10.2008C14.0375 10.1632 13.9421 10.1697 13.865 10.2184C13.5077 10.444 13.12 10.6087 12.7126 10.7081C12.6247 10.7296 12.5526 10.7941 12.5202 10.8806L12.2733 11.538H11.315L11.0681 10.8804C11.0356 10.7939 10.9636 10.7294 10.8757 10.7079C10.4686 10.6086 10.081 10.4439 9.72355 10.2183C9.64651 10.1696 9.55109 10.1631 9.46852 10.2007L8.83969 10.487L8.16206 9.79232L8.44125 9.14802C8.47793 9.06328 8.47155 8.96546 8.42412 8.88652C8.20408 8.52027 8.04337 8.12279 7.94637 7.70511C7.92546 7.61495 7.8625 7.54117 7.77815 7.5079L7.13681 7.25482V6.27246L7.77829 6.01931C7.86267 5.986 7.9256 5.91222 7.94651 5.82207C8.04343 5.40459 8.20415 5.00722 8.42422 4.64094C8.47166 4.56199 8.47803 4.46418 8.44136 4.37943L8.16213 3.73496L8.83976 3.04031L9.46855 3.32655C9.55116 3.36411 9.64654 3.35761 9.72359 3.30898C10.081 3.08342 10.4686 2.91867 10.8758 2.81935C10.9637 2.79788 11.0357 2.73337 11.0681 2.64687L11.3151 1.98922H12.2734L12.5203 2.64687C12.5528 2.73337 12.6248 2.79788 12.7127 2.81935C13.1198 2.91867 13.5075 3.08342 13.8649 3.30898C13.9419 3.35761 14.0373 3.36411 14.1199 3.32655L14.7487 3.04027L15.4263 3.73492L15.1472 4.37926C15.1105 4.46397 15.1169 4.56182 15.1643 4.64073C15.3844 5.00701 15.5451 5.40449 15.642 5.8221C15.6629 5.91226 15.7259 5.98607 15.8102 6.01935L16.4516 6.27249V7.25486ZM11.7942 3.87001C10.2377 3.87001 8.97141 5.1681 8.97141 6.76368C8.97141 8.35925 10.2377 9.65734 11.7942 9.65734C13.3507 9.65734 14.617 8.35925 14.617 6.76368C14.617 5.1681 13.3507 3.87001 11.7942 3.87001ZM11.7942 9.09518C10.5401 9.09518 9.51979 8.04925 9.51979 6.76368C9.51979 5.4781 10.5401 4.43217 11.7942 4.43217C13.0483 4.43217 14.0686 5.4781 14.0686 6.76368C14.0686 8.04925 13.0483 9.09518 11.7942 9.09518ZM0.818056 6.12763L0.646994 6.52248C0.600964 6.62872 0.623482 6.7531 0.703683 6.83532L1.30873 7.45555C1.38896 7.53776 1.51019 7.56088 1.6139 7.5137L1.99925 7.33823C2.19026 7.44592 2.39152 7.53147 2.60045 7.59373L2.75181 7.9968C2.79252 8.10529 2.89425 8.1769 3.0077 8.1769H3.86339C3.97683 8.1769 4.07853 8.10529 4.11928 7.9968L4.27057 7.59391C4.47964 7.53158 4.68103 7.44603 4.87201 7.3383L5.25715 7.51366C5.36072 7.56088 5.48209 7.5378 5.56233 7.45555L6.16737 6.83528C6.24757 6.75307 6.27009 6.62872 6.22406 6.52244L6.05293 6.12742C6.15794 5.93165 6.24143 5.7253 6.30217 5.51109L6.6954 5.35593C6.80123 5.31419 6.87108 5.20991 6.87108 5.09362V4.21648C6.87108 4.10018 6.80123 3.99594 6.6954 3.95416L6.3023 3.79904C6.24157 3.58479 6.15804 3.37837 6.05299 3.18253L6.22406 2.78769C6.27009 2.68144 6.24757 2.55707 6.16737 2.47485L5.56236 1.85469C5.48212 1.77247 5.3609 1.74939 5.25718 1.79654L4.87184 1.97197C4.68086 1.86431 4.47957 1.77873 4.27063 1.71647L4.11931 1.3134C4.07859 1.20491 3.97687 1.1333 3.86342 1.1333H3.00773C2.89428 1.1333 2.79259 1.20491 2.75184 1.3134L2.60049 1.71647C2.39158 1.77876 2.19026 1.86431 1.99928 1.972L1.61394 1.79654C1.51022 1.74939 1.389 1.77247 1.30876 1.85469L0.703683 2.47496C0.623482 2.55717 0.600964 2.68151 0.646994 2.78779L0.818125 3.18271C0.713075 3.37848 0.629617 3.58483 0.568815 3.79908L0.17569 3.95423C0.0698508 3.99601 0 4.10029 0 4.21655V5.09369C0 5.20998 0.0698508 5.31423 0.17569 5.356L0.568746 5.51109C0.629548 5.72541 0.71304 5.93186 0.818056 6.12763ZM0.548387 4.40954L0.89651 4.27217C0.980893 4.23886 1.04382 4.16511 1.06473 4.07496C1.12443 3.81777 1.22349 3.57295 1.35904 3.34735C1.40648 3.2684 1.41289 3.17055 1.37618 3.08584L1.22458 2.73601L1.56338 2.3887L1.90472 2.5441C1.98732 2.58166 2.08271 2.57516 2.15975 2.52657C2.38 2.38754 2.61879 2.28607 2.86954 2.2249C2.95745 2.20343 3.02946 2.13893 3.06192 2.05243L3.19597 1.69549H3.67508L3.8091 2.05243C3.84155 2.13893 3.91356 2.20343 4.00148 2.2249C4.25226 2.28607 4.49105 2.38758 4.71126 2.52653C4.78831 2.57516 4.88373 2.58166 4.9663 2.5441L5.30763 2.3887L5.64643 2.73601L5.49491 3.08574C5.45823 3.17045 5.46461 3.26826 5.51204 3.34721C5.64767 3.57299 5.74669 3.81784 5.80632 4.07496C5.82723 4.16511 5.89019 4.23893 5.97457 4.27224L6.32266 4.40958V4.90076L5.97447 5.03814C5.89012 5.07141 5.82716 5.14519 5.80625 5.23535C5.74655 5.49243 5.64753 5.73725 5.51198 5.96292C5.46454 6.04187 5.45817 6.13968 5.49484 6.22439L5.64643 6.57426L5.30763 6.92161L4.96647 6.76628C4.88387 6.72865 4.78845 6.73518 4.7114 6.78384C4.49129 6.92284 4.25243 7.02434 4.00148 7.08555C3.91353 7.10701 3.84152 7.17152 3.80906 7.25802L3.67508 7.61481H3.19597L3.06192 7.25788C3.02946 7.17141 2.95745 7.10687 2.86954 7.0854C2.61875 7.02423 2.37997 6.92277 2.15979 6.78377C2.08281 6.73515 1.98732 6.72865 1.90475 6.76621L1.56338 6.92161L1.22458 6.57426L1.37611 6.22453C1.41278 6.13982 1.40641 6.04201 1.35897 5.96306C1.22342 5.73739 1.1244 5.49254 1.06466 5.23528C1.04375 5.14512 0.980825 5.07131 0.896442 5.03803L0.548387 4.90073V4.40954ZM3.43554 6.46594C4.40958 6.46594 5.20203 5.65363 5.20203 4.65514C5.20203 3.65664 4.40958 2.84426 3.43554 2.84426C2.4615 2.84426 1.66905 3.65661 1.66905 4.65514C1.66905 5.65363 2.4615 6.46594 3.43554 6.46594ZM3.43554 3.40645C4.10721 3.40645 4.65365 3.9666 4.65365 4.65517C4.65365 5.34367 4.10721 5.90382 3.43554 5.90382C2.76387 5.90382 2.21744 5.34367 2.21744 4.65517C2.21744 3.9666 2.76391 3.40645 3.43554 3.40645ZM13.6709 12.9606L10.4842 13.8493C10.3439 13.8884 10.2068 13.9081 10.0699 13.9081C10.0696 13.9081 10.0693 13.9081 10.069 13.9081C10.1335 13.84 10.1914 13.7611 10.2417 13.6718C10.5292 13.1615 10.3607 12.5001 9.85832 12.1661C9.84794 12.1592 9.83714 12.153 9.82597 12.1476C9.07351 11.7843 8.36811 11.2803 7.80129 10.8753C7.60407 10.7344 7.41783 10.6013 7.25746 10.4947C6.60618 10.0616 5.88676 10.1775 5.2689 10.3481L2.9204 10.9963L2.82389 10.614C2.77755 10.4304 2.66386 10.2761 2.50373 10.1794C2.3436 10.0828 2.15688 10.0558 1.97769 10.1032L1.08697 10.3395C0.716365 10.4379 0.492829 10.827 0.588694 11.2069L1.78603 15.95C1.83237 16.1336 1.94605 16.2879 2.10618 16.3846C2.21473 16.4501 2.33551 16.4837 2.45791 16.4837C2.51603 16.4837 2.57451 16.4761 2.63219 16.4608L3.52291 16.2245C3.70202 16.177 3.85256 16.0605 3.94684 15.8963C4.04113 15.7322 4.06752 15.5407 4.02119 15.3571L3.90294 14.8887L4.41431 14.7483L7.68386 16.6833C8.03922 16.8937 8.41791 17 8.80237 17C9.01446 17 9.22836 16.9676 9.44103 16.9026L15.2688 15.119C15.8105 14.9533 16.1515 14.255 15.9843 13.6541C15.9032 13.3626 15.4967 12.4515 13.6709 12.9606ZM3.47431 15.6111C3.46276 15.6312 3.43585 15.6669 3.38554 15.6803L2.49478 15.9166C2.44447 15.9298 2.40409 15.9121 2.38442 15.9002C2.36482 15.8884 2.32996 15.8608 2.31694 15.8092L1.11964 11.066C1.09982 10.9875 1.14781 10.904 1.22441 10.8837L2.11513 10.6474C2.12778 10.644 2.13981 10.6427 2.15105 10.6427C2.18447 10.6427 2.21082 10.6549 2.22553 10.6638C2.24513 10.6756 2.27999 10.7032 2.29301 10.7547L3.49031 15.4979C3.5033 15.5495 3.48586 15.591 3.47431 15.6111ZM15.112 14.5803L9.28413 16.3639C8.8277 16.5035 8.38155 16.4471 7.95809 16.1965L4.59014 14.2032C4.52714 14.1659 4.45222 14.1558 4.38209 14.1751L3.76557 14.3444L3.05781 11.5405L5.41152 10.8909C5.93787 10.7456 6.48972 10.6542 6.95903 10.9663C7.11172 11.0678 7.28597 11.1923 7.48775 11.3365C8.06698 11.7504 8.78674 12.2646 9.57391 12.6473C9.8248 12.8234 9.90802 13.1401 9.76684 13.3908C9.58115 13.7205 9.27974 13.6854 9.05565 13.595C8.67291 13.3983 8.31711 13.1798 7.94068 12.9484C7.7618 12.8385 7.57686 12.7249 7.38571 12.6117C7.25458 12.5341 7.08687 12.5802 7.01113 12.7146C6.93542 12.8491 6.98039 13.021 7.11152 13.0986C7.29879 13.2094 7.48178 13.3218 7.65874 13.4306C8.04765 13.6695 8.41497 13.8953 8.82019 14.1029C8.82163 14.1036 8.82314 14.1041 8.82461 14.1048C8.8265 14.1057 8.82828 14.1068 8.8302 14.1077L9.1581 14.2591C9.65339 14.486 10.1344 14.5295 10.6282 14.3918L13.8149 13.5031C14.7197 13.2508 15.3336 13.3649 15.4569 13.8083C15.5415 14.1125 15.3675 14.5021 15.112 14.5803ZM2.12634 11.4837C2.10797 11.6444 1.96597 11.7595 1.80913 11.7407C1.65232 11.7218 1.54011 11.5762 1.55848 11.4155C1.57685 11.2547 1.71885 11.1397 1.87566 11.1585C2.03249 11.1773 2.14471 11.3229 2.12634 11.4837Z" fill="black"/>
</g>
<defs>
<clipPath id="clip0_9302_6358">
<rect width="17" height="17" fill="white"/>
</clipPath>
</defs>
</svg>
