<svg width="25" height="25" viewBox="0 0 25 25" fill="none" xmlns="http://www.w3.org/2000/svg">
<path fill-rule="evenodd" clip-rule="evenodd" d="M24.3591 7.98418L23.3833 7.60859C23.2413 7.0876 23.0342 6.58804 22.7657 6.1186L23.1903 5.1624C23.2559 5.01475 23.2238 4.8419 23.1095 4.72764L21.7648 3.38301C21.6506 3.26875 21.4779 3.23662 21.3301 3.3022L20.3736 3.727C19.9042 3.4585 19.4047 3.25147 18.8841 3.10947L18.5084 2.13345C18.4504 1.98262 18.3055 1.88315 18.1439 1.88315H16.2423C16.0807 1.88315 15.9358 1.98267 15.8777 2.13345L15.502 3.10952C14.9814 3.25147 14.4819 3.45855 14.0125 3.72705L13.056 3.30225C12.9083 3.23662 12.7355 3.26875 12.6212 3.38306L11.2766 4.72773C11.1623 4.84199 11.1302 5.0148 11.1958 5.1625L11.6206 6.11885C11.3521 6.58823 11.145 7.08765 11.003 7.6085L10.0271 7.98418C9.87632 8.04224 9.77681 8.18711 9.77681 8.34873V10.2503C9.77681 10.412 9.87632 10.5568 10.0271 10.6149L11.0028 10.9905C11.1449 11.5114 11.352 12.0111 11.6205 12.4804L11.1958 13.4366C11.1302 13.5843 11.1623 13.7571 11.2766 13.8713L12.6212 15.216C12.7355 15.3303 12.9083 15.3624 13.056 15.2968L14.0125 14.872C14.482 15.1405 14.9814 15.3476 15.5021 15.4895L15.8777 16.4655C15.9357 16.6164 16.0807 16.7158 16.2423 16.7158H18.1439C18.3055 16.7158 18.4504 16.6163 18.5084 16.4655L18.884 15.4897C19.405 15.3478 19.9045 15.1407 20.374 14.8721L21.3302 15.2968C21.4778 15.3624 21.6506 15.3303 21.7649 15.216L23.1096 13.8713C23.2238 13.7571 23.2559 13.5843 23.1903 13.4366L22.7655 12.48C23.034 12.0106 23.2411 11.5112 23.383 10.9906L24.3591 10.6149C24.5099 10.5569 24.6094 10.412 24.6094 10.2503V8.34873C24.6094 8.18711 24.5099 8.04219 24.3591 7.98418ZM23.8281 9.98213L22.9141 10.3339C22.7939 10.3802 22.7042 10.4827 22.6745 10.6081C22.5364 11.188 22.3075 11.7403 21.9939 12.2495C21.9264 12.3592 21.9173 12.4951 21.9696 12.6128L22.3674 13.5086L21.4021 14.474L20.5066 14.0763C20.389 14.024 20.253 14.0331 20.1432 14.1006C19.6341 14.4142 19.0817 14.6432 18.5014 14.7812C18.3761 14.8111 18.2735 14.9007 18.2273 15.0209L17.8756 15.9346H16.5104L16.1586 15.0207C16.1124 14.9004 16.0098 14.8108 15.8845 14.781C15.3046 14.643 14.7523 14.414 14.2431 14.1005C14.1333 14.0329 13.9974 14.0239 13.8798 14.0761L12.9839 14.4739L12.0186 13.5085L12.4163 12.6131C12.4686 12.4954 12.4595 12.3594 12.3919 12.2497C12.0784 11.7407 11.8495 11.1883 11.7113 10.6079C11.6815 10.4826 11.5918 10.38 11.4716 10.3338L10.558 9.98208V8.61685L11.4718 8.26504C11.592 8.21875 11.6817 8.11621 11.7115 7.99092C11.8496 7.41074 12.0785 6.8585 12.392 6.34946C12.4596 6.23975 12.4687 6.10381 12.4165 5.98604L12.0187 5.09038L12.984 4.125L13.8798 4.5228C13.9975 4.575 14.1334 4.56597 14.2432 4.49839C14.7524 4.18491 15.3046 3.95596 15.8846 3.81792C16.0098 3.78809 16.1124 3.69844 16.1586 3.57822L16.5105 2.66426H17.8757L18.2275 3.57822C18.2737 3.69844 18.3763 3.78809 18.5016 3.81792C19.0815 3.95596 19.6338 4.18491 20.143 4.49839C20.2527 4.56597 20.3887 4.575 20.5063 4.5228L21.4021 4.12495L22.3675 5.09033L21.9698 5.98579C21.9175 6.10352 21.9266 6.2395 21.9942 6.34917C22.3077 6.8582 22.5367 7.4106 22.6748 7.99097C22.7045 8.11626 22.7942 8.21885 22.9144 8.26509L23.8281 8.61689V9.98213ZM17.193 5.27808C14.9756 5.27808 13.1716 7.08208 13.1716 9.29951C13.1716 11.5169 14.9756 13.3209 17.193 13.3209C19.4104 13.3209 21.2144 11.5169 21.2144 9.29951C21.2144 7.08208 19.4104 5.27808 17.193 5.27808ZM17.193 12.5397C15.4063 12.5397 13.9528 11.0861 13.9528 9.29951C13.9528 7.51289 15.4064 6.05933 17.193 6.05933C18.9796 6.05933 20.4332 7.51289 20.4332 9.29951C20.4332 11.0861 18.9796 12.5397 17.193 12.5397ZM1.55605 8.41558L1.31235 8.96431C1.24678 9.11196 1.27886 9.28481 1.39312 9.39907L2.25508 10.261C2.36938 10.3753 2.54209 10.4074 2.68984 10.3418L3.23882 10.098C3.51094 10.2477 3.79766 10.3666 4.09531 10.4531L4.31094 11.0132C4.36895 11.164 4.51387 11.2635 4.67549 11.2635H5.89453C6.05615 11.2635 6.20103 11.164 6.25908 11.0132L6.47461 10.4533C6.77246 10.3667 7.05937 10.2478 7.33145 10.0981L7.88013 10.3418C8.02769 10.4074 8.20059 10.3753 8.31489 10.261L9.17686 9.39902C9.29111 9.28477 9.32319 9.11196 9.25762 8.96426L9.01382 8.41528C9.16343 8.14321 9.28237 7.85645 9.3689 7.55874L9.9291 7.34312C10.0799 7.28511 10.1794 7.14019 10.1794 6.97856V5.75957C10.1794 5.59795 10.0799 5.45308 9.9291 5.39502L9.36909 5.17944C9.28257 4.88169 9.16357 4.59482 9.01392 4.32266L9.25762 3.77393C9.32319 3.62627 9.29111 3.45342 9.17686 3.33916L8.31494 2.4773C8.20063 2.36304 8.02793 2.33096 7.88018 2.39648L7.3312 2.64028C7.05913 2.49067 6.77236 2.37173 6.47471 2.28521L6.25913 1.72505C6.20112 1.57427 6.0562 1.47476 5.89458 1.47476H4.67554C4.51392 1.47476 4.36904 1.57427 4.31099 1.72505L4.09536 2.28521C3.79775 2.37178 3.51094 2.49067 3.23887 2.64033L2.68989 2.39648C2.54214 2.33096 2.36943 2.36304 2.25513 2.4773L1.39312 3.33931C1.27886 3.45356 1.24678 3.62637 1.31235 3.77407L1.55615 4.3229C1.40649 4.59497 1.2876 4.88174 1.20098 5.17949L0.640918 5.39512C0.490137 5.45317 0.390625 5.5981 0.390625 5.75967V6.97866C0.390625 7.14028 0.490137 7.28516 0.640918 7.34321L1.20088 7.55874C1.2875 7.85659 1.40645 8.14351 1.55605 8.41558ZM1.17188 6.02788L1.66782 5.83696C1.78804 5.79067 1.87769 5.68818 1.90747 5.56289C1.99253 5.20547 2.13364 4.86523 2.32676 4.55171C2.39434 4.44199 2.40347 4.30601 2.35117 4.18828L2.13521 3.7021L2.61787 3.21943L3.10415 3.4354C3.22183 3.4876 3.35771 3.47856 3.46748 3.41104C3.78125 3.21782 4.12144 3.07681 4.47866 2.9918C4.60391 2.96196 4.70649 2.87231 4.75273 2.7521L4.9437 2.25606H5.62627L5.81719 2.7521C5.86343 2.87231 5.96602 2.96196 6.09126 2.9918C6.44853 3.07681 6.78872 3.21787 7.10244 3.41099C7.21221 3.47856 7.34814 3.4876 7.46577 3.4354L7.95205 3.21943L8.43472 3.7021L8.21885 4.18814C8.1666 4.30586 8.17568 4.4418 8.24326 4.55151C8.43647 4.86528 8.57754 5.20557 8.6625 5.56289C8.69229 5.68818 8.78198 5.79077 8.9022 5.83706L9.3981 6.02793V6.71055L8.90205 6.90146C8.78188 6.94771 8.69219 7.05024 8.6624 7.17554C8.57734 7.53281 8.43628 7.87305 8.24316 8.18667C8.17559 8.29639 8.1665 8.43232 8.21875 8.55005L8.43472 9.03628L7.95205 9.51899L7.46602 9.30313C7.34834 9.25083 7.2124 9.25991 7.10264 9.32754C6.78906 9.5207 6.44878 9.66177 6.09126 9.74683C5.96597 9.77666 5.86338 9.86631 5.81714 9.98652L5.62627 10.4824H4.9437L4.75273 9.98633C4.70649 9.86616 4.60391 9.77646 4.47866 9.74663C4.12139 9.66162 3.7812 9.52061 3.46753 9.32744C3.35786 9.25986 3.22183 9.25083 3.1042 9.30303L2.61787 9.51899L2.13521 9.03628L2.35107 8.55024C2.40332 8.43252 2.39424 8.29658 2.32666 8.18687C2.13355 7.87324 1.99248 7.53296 1.90737 7.17544C1.87759 7.05015 1.78794 6.94756 1.66772 6.90132L1.17188 6.7105V6.02788ZM5.28501 8.88574C6.67266 8.88574 7.80161 7.75684 7.80161 6.36919C7.80161 4.98154 6.67266 3.85254 5.28501 3.85254C3.89736 3.85254 2.76841 4.98149 2.76841 6.36919C2.76841 7.75684 3.89736 8.88574 5.28501 8.88574ZM5.28501 4.63384C6.24189 4.63384 7.02036 5.41231 7.02036 6.36924C7.02036 7.32607 6.24189 8.10454 5.28501 8.10454C4.32812 8.10454 3.54966 7.32607 3.54966 6.36924C3.54966 5.41231 4.32817 4.63384 5.28501 4.63384ZM19.8667 17.9117L15.3268 19.1467C15.1269 19.2011 14.9315 19.2284 14.7365 19.2284C14.7361 19.2284 14.7357 19.2284 14.7353 19.2284C14.8271 19.1338 14.9096 19.0242 14.9813 18.9C15.3908 18.1909 15.1509 17.2717 14.4351 16.8075C14.4203 16.7979 14.4049 16.7893 14.389 16.7818C13.317 16.2769 12.3121 15.5764 11.5046 15.0136C11.2236 14.8178 10.9583 14.6328 10.7298 14.4847C9.802 13.8828 8.7771 14.0438 7.89687 14.2809L4.55112 15.1818L4.41362 14.6505C4.34761 14.3953 4.18564 14.1808 3.95752 14.0465C3.72939 13.9122 3.46338 13.8747 3.20811 13.9406L1.93916 14.269C1.41118 14.4057 1.09272 14.9464 1.2293 15.4745L2.93506 22.0661C3.00107 22.3212 3.16304 22.5357 3.39116 22.6701C3.5458 22.7611 3.71787 22.8078 3.89224 22.8078C3.97505 22.8078 4.05835 22.7972 4.14053 22.776L5.40947 22.4477C5.66465 22.3816 5.8791 22.2197 6.01343 21.9916C6.14775 21.7634 6.18535 21.4973 6.11934 21.2422L5.95088 20.5912L6.67939 20.396L11.3373 23.0853C11.8436 23.3776 12.3831 23.5253 12.9308 23.5253C13.2329 23.5253 13.5376 23.4803 13.8406 23.3899L22.1431 20.9112C22.9147 20.6809 23.4005 19.7105 23.1624 18.8753C23.0468 18.4703 22.4677 17.2041 19.8667 17.9117ZM5.34023 21.5951C5.32378 21.623 5.28545 21.6727 5.21377 21.6913L3.94478 22.0197C3.8731 22.038 3.81558 22.0134 3.78755 21.9969C3.75962 21.9805 3.70996 21.9421 3.69141 21.8705L1.98569 15.2787C1.95747 15.1695 2.02583 15.0535 2.13496 15.0252L3.40391 14.6969C3.42192 14.6922 3.43906 14.6903 3.45508 14.6903C3.50269 14.6903 3.54023 14.7073 3.56118 14.7196C3.58911 14.7361 3.63877 14.7744 3.65732 14.846L5.36304 21.4378C5.38154 21.5096 5.35669 21.5671 5.34023 21.5951ZM21.9196 20.1625L13.6171 22.6413C12.9668 22.8353 12.3313 22.757 11.728 22.4086L6.92988 19.6385C6.84014 19.5867 6.7334 19.5727 6.6335 19.5995L5.75518 19.8348L4.74688 15.9381L8.10005 15.0353C8.8499 14.8333 9.63608 14.7063 10.3047 15.1401C10.5222 15.2812 10.7705 15.4542 11.0579 15.6545C11.8831 16.2297 12.9085 16.9444 14.0299 17.4763C14.3874 17.721 14.5059 18.1611 14.3048 18.5095C14.0402 18.9676 13.6108 18.9189 13.2916 18.7932C12.7463 18.5199 12.2395 18.2162 11.7032 17.8947C11.4483 17.742 11.1849 17.584 10.9125 17.4268C10.7257 17.3189 10.4868 17.3829 10.3789 17.5698C10.271 17.7566 10.3351 17.9955 10.5219 18.1034C10.7887 18.2574 11.0494 18.4136 11.3015 18.5648C11.8556 18.8969 12.3789 19.2106 12.9562 19.4991C12.9582 19.5001 12.9604 19.5008 12.9625 19.5018C12.9651 19.5031 12.9677 19.5046 12.9704 19.5059L13.4375 19.7162C14.1432 20.0316 14.8284 20.0919 15.5318 19.9006L20.0718 18.6656C21.3608 18.315 22.2354 18.4734 22.4111 19.0896C22.5316 19.5124 22.2836 20.0539 21.9196 20.1625ZM3.41987 15.8591C3.3937 16.0825 3.19141 16.2424 2.96797 16.2162C2.74458 16.19 2.58472 15.9877 2.61089 15.7643C2.63706 15.5409 2.83936 15.381 3.06274 15.4072C3.28618 15.4333 3.44604 15.6357 3.41987 15.8591Z" fill="white"/>
</svg>
