<?xml version="1.0" encoding="utf-8"?>
<!-- Generator: Adobe Illustrator 26.3.1, SVG Export Plug-In . SVG Version: 6.00 Build 0)  -->
<svg version="1.1" id="Layer_1" xmlns="http://www.w3.org/2000/svg" xmlns:xlink="http://www.w3.org/1999/xlink" x="0px" y="0px"
	 viewBox="0 0 35 35" style="enable-background:new 0 0 35 35;" xml:space="preserve">
<style type="text/css">
	.st0{fill:#E24C4B;}
	.st1{fill:#FFFFFF;}
	.st2{fill:#3F4448;}
</style>
<g>
	<path class="st0" d="M30.45,25.81L19.67,6.68c-0.92-1.67-3.43-1.67-4.34,0L4.55,25.81c-0.92,1.67,0.25,3.76,2.17,3.76h21.47
		C30.2,29.49,31.37,27.48,30.45,25.81z"/>
	<path class="st1" d="M17.5,7.93l10.78,19.13H6.72L17.5,7.93L17.5,7.93z"/>
	<g>
		<path class="st2" d="M15.75,16.71l0.67,4.43c0.08,0.5,0.5,0.92,1.09,0.92l0,0c0.5,0,1-0.42,1.09-0.92l0.67-4.43
			c0.17-1.09-0.67-2-1.75-2l0,0C16.41,14.7,15.66,15.62,15.75,16.71z"/>
		<circle class="st2" cx="17.5" cy="23.97" r="1"/>
	</g>
</g>
</svg>
