<svg width="16" height="20" viewBox="0 0 16 20" fill="none" xmlns="http://www.w3.org/2000/svg">
<path d="M0 0H16V20H0V0Z" stroke="#E5E7EB"/>
<g clip-path="url(#clip0_11567_8253)">
<path d="M8 2C10.1217 2 12.1566 2.84285 13.6569 4.34315C15.1571 5.84344 16 7.87827 16 10C16 12.1217 15.1571 14.1566 13.6569 15.6569C12.1566 17.1571 10.1217 18 8 18C5.87827 18 3.84344 17.1571 2.34315 15.6569C0.842855 14.1566 0 12.1217 0 10C0 7.87827 0.842855 5.84344 2.34315 4.34315C3.84344 2.84285 5.87827 2 8 2ZM7.25 5.75V10C7.25 10.25 7.375 10.4844 7.58437 10.625L10.5844 12.625C10.9281 12.8562 11.3938 12.7625 11.625 12.4156C11.8562 12.0687 11.7625 11.6062 11.4156 11.375L8.75 9.6V5.75C8.75 5.33437 8.41562 5 8 5C7.58437 5 7.25 5.33437 7.25 5.75Z" fill="#CA8A04"/>
</g>
<defs>
<clipPath id="clip0_11567_8253">
<path d="M0 2H16V18H0V2Z" fill="white"/>
</clipPath>
</defs>
</svg>
