<svg width="20" height="20" viewBox="0 0 20 20" fill="none" xmlns="http://www.w3.org/2000/svg">
<path d="M0 0H20V20H0V0Z" stroke="#E5E7EB"/>
<path d="M0 2H20V18H0V2Z" stroke="#E5E7EB"/>
<path d="M1 3C1.55313 3 2 3.44687 2 4V12H9V7C9 6.44688 9.44687 6 10 6H17C18.6562 6 20 7.34375 20 9V16C20 16.5531 19.5531 17 19 17C18.4469 17 18 16.5531 18 16V15H11H10H2V16C2 16.5531 1.55313 17 1 17C0.446875 17 0 16.5531 0 16V4C0 3.44687 0.446875 3 1 3ZM5.5 6C6.16304 6 6.79893 6.26339 7.26777 6.73223C7.73661 7.20107 8 7.83696 8 8.5C8 9.16304 7.73661 9.79893 7.26777 10.2678C6.79893 10.7366 6.16304 11 5.5 11C4.83696 11 4.20107 10.7366 3.73223 10.2678C3.26339 9.79893 3 9.16304 3 8.5C3 7.83696 3.26339 7.20107 3.73223 6.73223C4.20107 6.26339 4.83696 6 5.5 6Z" fill="#2563EB"/>
</svg>
