<svg width="18" height="20" viewBox="0 0 18 20" fill="none" xmlns="http://www.w3.org/2000/svg">
<path d="M0 0H18V20H0V0Z" stroke="#E5E7EB"/>
<g clip-path="url(#clip0_11567_8233)">
<path d="M10 3.00001C10 2.69063 9.85938 2.40001 9.61563 2.21251C9.37188 2.02501 9.05625 1.95626 8.75625 2.03126L3.13438 3.43751C2.46875 3.60313 2 4.20313 2 4.89063V16H1C0.446875 16 0 16.4469 0 17C0 17.5531 0.446875 18 1 18H3H9H10V17V3.00001ZM8 10C8 10.5531 7.66563 11 7.25 11C6.83437 11 6.5 10.5531 6.5 10C6.5 9.44688 6.83437 9.00001 7.25 9.00001C7.66563 9.00001 8 9.44688 8 10ZM11 6.00001H14V17C14 17.5531 14.4469 18 15 18H17C17.5531 18 18 17.5531 18 17C18 16.4469 17.5531 16 17 16H16V6.00001C16 4.89688 15.1031 4.00001 14 4.00001H11V6.00001Z" fill="#16A34A"/>
</g>
<defs>
<clipPath id="clip0_11567_8233">
<path d="M0 2H18V18H0V2Z" fill="white"/>
</clipPath>
</defs>
</svg>
