<svg width="20" height="20" viewBox="0 0 20 20" fill="none" xmlns="http://www.w3.org/2000/svg">
<path d="M5 12.5C4.73438 12.5 4.53125 12.7031 4.53125 12.9688V19.375C4.53125 19.6406 4.73438 19.8438 5 19.8438C5.26562 19.8438 5.46875 19.6406 5.46875 19.375V12.9688C5.46875 12.7031 5.26562 12.5 5 12.5Z" fill="white"/>
<path d="M5 4.21875C6.125 4.21875 7.03125 3.3125 7.03125 2.1875C7.03125 1.0625 6.125 0.15625 5 0.15625C3.875 0.15625 2.96875 1.0625 2.96875 2.1875C2.96875 3.3125 3.875 4.21875 5 4.21875ZM5 1.09375C5.60938 1.09375 6.09375 1.57812 6.09375 2.1875C6.09375 2.79688 5.60938 3.28125 5 3.28125C4.39062 3.28125 3.90625 2.79688 3.90625 2.1875C3.90625 1.57812 4.39062 1.09375 5 1.09375Z" fill="white"/>
<path d="M3.125 13.5938C2.85938 13.5938 2.65625 13.7969 2.65625 14.0625V19.375C2.65625 19.6406 2.85938 19.8438 3.125 19.8438C3.39062 19.8438 3.59375 19.6406 3.59375 19.375V14.0625C3.59375 13.7969 3.39062 13.5938 3.125 13.5938Z" fill="white"/>
<path d="M17.8125 0.15625H8.59375C8.32812 0.15625 8.125 0.359375 8.125 0.625C8.125 0.890625 8.32812 1.09375 8.59375 1.09375H17.3438V18.9062H7.34375V11.9531C7.89062 11.7656 8.28125 11.2344 8.28125 10.625V6.875C8.28125 5.75 7.375 4.84375 6.25 4.84375H3.75C2.625 4.84375 1.71875 5.75 1.71875 6.875V11.5625C1.71875 11.8281 1.92188 12.0312 2.1875 12.0312C2.45312 12.0312 2.65625 11.8281 2.65625 11.5625V6.875C2.65625 6.26562 3.14062 5.78125 3.75 5.78125H6.25C6.85938 5.78125 7.34375 6.26562 7.34375 6.875V10.625C7.34375 10.8906 7.14062 11.0938 6.875 11.0938C6.60938 11.0938 6.40625 11.2969 6.40625 11.5625V19.375C6.40625 19.6406 6.60938 19.8438 6.875 19.8438H17.8125C18.0781 19.8438 18.2812 19.6406 18.2812 19.375V0.625C18.2812 0.359375 18.0781 0.15625 17.8125 0.15625Z" fill="white"/>
<path d="M15.9375 10.4688H15.0156C14.7812 10.4688 14.5781 10.3125 14.5312 10.0937C14.4844 9.79687 14.7031 9.53125 15 9.53125H15.9375C16.2031 9.53125 16.4062 9.73438 16.4062 10C16.4062 10.2656 16.2031 10.4688 15.9375 10.4688Z" fill="white"/>
</svg>
